<mxfile host="app.diagrams.net" modified="2024-03-07T20:45:32.187Z" agent="Mozilla/5.0 (Windows NT 10.0; Win64; x64) AppleWebKit/537.36 (KHTML, like Gecko) Chrome/122.0.0.0 Safari/537.36 Edg/122.0.0.0" etag="L3ERi-yB74cYHQgpKJ90" version="22.1.22" type="device">
  <diagram name="Page-1" id="eAQ0LMjfHkkHGsLQx4QR">
    <mxGraphModel dx="1574" dy="973" grid="0" gridSize="10" guides="1" tooltips="1" connect="1" arrows="1" fold="1" page="1" pageScale="1" pageWidth="1169" pageHeight="827" background="#E6E6E6" math="0" shadow="1">
      <root>
        <mxCell id="0" />
        <mxCell id="1" parent="0" />
        <mxCell id="hjU8-SRuWJ7MqtnoK7Vt-309" value="Students" style="shape=table;startSize=30;container=1;collapsible=1;childLayout=tableLayout;fixedRows=1;rowLines=0;fontStyle=1;align=center;resizeLast=1;" vertex="1" parent="1">
          <mxGeometry x="532" y="553.95" width="228" height="244.05158615112316" as="geometry" />
        </mxCell>
        <mxCell id="hjU8-SRuWJ7MqtnoK7Vt-310" value="" style="shape=tableRow;horizontal=0;startSize=0;swimlaneHead=0;swimlaneBody=0;fillColor=none;collapsible=0;dropTarget=0;points=[[0,0.5],[1,0.5]];portConstraint=eastwest;strokeColor=inherit;top=0;left=0;right=0;bottom=1;" vertex="1" parent="hjU8-SRuWJ7MqtnoK7Vt-309">
          <mxGeometry y="30" width="228" height="64" as="geometry" />
        </mxCell>
        <mxCell id="hjU8-SRuWJ7MqtnoK7Vt-311" value="PK" style="shape=partialRectangle;overflow=hidden;connectable=0;fillColor=none;strokeColor=inherit;top=0;left=0;bottom=0;right=0;fontStyle=1;" vertex="1" parent="hjU8-SRuWJ7MqtnoK7Vt-310">
          <mxGeometry width="30" height="64" as="geometry">
            <mxRectangle width="30" height="64" as="alternateBounds" />
          </mxGeometry>
        </mxCell>
        <mxCell id="hjU8-SRuWJ7MqtnoK7Vt-312" value="student_id INT " style="shape=partialRectangle;overflow=hidden;connectable=0;fillColor=none;align=left;strokeColor=inherit;top=0;left=0;bottom=0;right=0;spacingLeft=6;fontStyle=5;" vertex="1" parent="hjU8-SRuWJ7MqtnoK7Vt-310">
          <mxGeometry x="30" width="198" height="64" as="geometry">
            <mxRectangle width="198" height="64" as="alternateBounds" />
          </mxGeometry>
        </mxCell>
        <mxCell id="hjU8-SRuWJ7MqtnoK7Vt-313" value="" style="shape=tableRow;horizontal=0;startSize=0;swimlaneHead=0;swimlaneBody=0;fillColor=none;collapsible=0;dropTarget=0;points=[[0,0.5],[1,0.5]];portConstraint=eastwest;strokeColor=inherit;top=0;left=0;right=0;bottom=0;" vertex="1" parent="hjU8-SRuWJ7MqtnoK7Vt-309">
          <mxGeometry y="94" width="228" height="30" as="geometry" />
        </mxCell>
        <mxCell id="hjU8-SRuWJ7MqtnoK7Vt-314" value="" style="shape=partialRectangle;overflow=hidden;connectable=0;fillColor=none;strokeColor=inherit;top=0;left=0;bottom=0;right=0;" vertex="1" parent="hjU8-SRuWJ7MqtnoK7Vt-313">
          <mxGeometry width="30" height="30" as="geometry">
            <mxRectangle width="30" height="30" as="alternateBounds" />
          </mxGeometry>
        </mxCell>
        <mxCell id="hjU8-SRuWJ7MqtnoK7Vt-315" value="first_name VARCHAR" style="shape=partialRectangle;overflow=hidden;connectable=0;fillColor=none;align=left;strokeColor=inherit;top=0;left=0;bottom=0;right=0;spacingLeft=6;" vertex="1" parent="hjU8-SRuWJ7MqtnoK7Vt-313">
          <mxGeometry x="30" width="198" height="30" as="geometry">
            <mxRectangle width="198" height="30" as="alternateBounds" />
          </mxGeometry>
        </mxCell>
        <mxCell id="hjU8-SRuWJ7MqtnoK7Vt-319" value="" style="shape=tableRow;horizontal=0;startSize=0;swimlaneHead=0;swimlaneBody=0;fillColor=none;collapsible=0;dropTarget=0;points=[[0,0.5],[1,0.5]];portConstraint=eastwest;strokeColor=inherit;top=0;left=0;right=0;bottom=0;" vertex="1" parent="hjU8-SRuWJ7MqtnoK7Vt-309">
          <mxGeometry y="124" width="228" height="30" as="geometry" />
        </mxCell>
        <mxCell id="hjU8-SRuWJ7MqtnoK7Vt-320" value="" style="shape=partialRectangle;overflow=hidden;connectable=0;fillColor=none;strokeColor=inherit;top=0;left=0;bottom=0;right=0;" vertex="1" parent="hjU8-SRuWJ7MqtnoK7Vt-319">
          <mxGeometry width="30" height="30" as="geometry">
            <mxRectangle width="30" height="30" as="alternateBounds" />
          </mxGeometry>
        </mxCell>
        <mxCell id="hjU8-SRuWJ7MqtnoK7Vt-321" value="last_name VARCHAR" style="shape=partialRectangle;overflow=hidden;connectable=0;fillColor=none;align=left;strokeColor=inherit;top=0;left=0;bottom=0;right=0;spacingLeft=6;" vertex="1" parent="hjU8-SRuWJ7MqtnoK7Vt-319">
          <mxGeometry x="30" width="198" height="30" as="geometry">
            <mxRectangle width="198" height="30" as="alternateBounds" />
          </mxGeometry>
        </mxCell>
        <mxCell id="hjU8-SRuWJ7MqtnoK7Vt-322" value="" style="shape=tableRow;horizontal=0;startSize=0;swimlaneHead=0;swimlaneBody=0;fillColor=none;collapsible=0;dropTarget=0;points=[[0,0.5],[1,0.5]];portConstraint=eastwest;strokeColor=inherit;top=0;left=0;right=0;bottom=0;" vertex="1" parent="hjU8-SRuWJ7MqtnoK7Vt-309">
          <mxGeometry y="154" width="228" height="30" as="geometry" />
        </mxCell>
        <mxCell id="hjU8-SRuWJ7MqtnoK7Vt-323" value="" style="shape=partialRectangle;overflow=hidden;connectable=0;fillColor=none;strokeColor=inherit;top=0;left=0;bottom=0;right=0;" vertex="1" parent="hjU8-SRuWJ7MqtnoK7Vt-322">
          <mxGeometry width="30" height="30" as="geometry">
            <mxRectangle width="30" height="30" as="alternateBounds" />
          </mxGeometry>
        </mxCell>
        <mxCell id="hjU8-SRuWJ7MqtnoK7Vt-324" value="gender VARCHAR" style="shape=partialRectangle;overflow=hidden;connectable=0;fillColor=none;align=left;strokeColor=inherit;top=0;left=0;bottom=0;right=0;spacingLeft=6;" vertex="1" parent="hjU8-SRuWJ7MqtnoK7Vt-322">
          <mxGeometry x="30" width="198" height="30" as="geometry">
            <mxRectangle width="198" height="30" as="alternateBounds" />
          </mxGeometry>
        </mxCell>
        <mxCell id="hjU8-SRuWJ7MqtnoK7Vt-325" value="" style="shape=tableRow;horizontal=0;startSize=0;swimlaneHead=0;swimlaneBody=0;fillColor=none;collapsible=0;dropTarget=0;points=[[0,0.5],[1,0.5]];portConstraint=eastwest;strokeColor=inherit;top=0;left=0;right=0;bottom=0;" vertex="1" parent="hjU8-SRuWJ7MqtnoK7Vt-309">
          <mxGeometry y="184" width="228" height="30" as="geometry" />
        </mxCell>
        <mxCell id="hjU8-SRuWJ7MqtnoK7Vt-326" value="" style="shape=partialRectangle;overflow=hidden;connectable=0;fillColor=none;strokeColor=inherit;top=0;left=0;bottom=0;right=0;" vertex="1" parent="hjU8-SRuWJ7MqtnoK7Vt-325">
          <mxGeometry width="30" height="30" as="geometry">
            <mxRectangle width="30" height="30" as="alternateBounds" />
          </mxGeometry>
        </mxCell>
        <mxCell id="hjU8-SRuWJ7MqtnoK7Vt-327" value="date_of_birth DATE" style="shape=partialRectangle;overflow=hidden;connectable=0;fillColor=none;align=left;strokeColor=inherit;top=0;left=0;bottom=0;right=0;spacingLeft=6;" vertex="1" parent="hjU8-SRuWJ7MqtnoK7Vt-325">
          <mxGeometry x="30" width="198" height="30" as="geometry">
            <mxRectangle width="198" height="30" as="alternateBounds" />
          </mxGeometry>
        </mxCell>
        <mxCell id="hjU8-SRuWJ7MqtnoK7Vt-328" value="" style="shape=tableRow;horizontal=0;startSize=0;swimlaneHead=0;swimlaneBody=0;fillColor=none;collapsible=0;dropTarget=0;points=[[0,0.5],[1,0.5]];portConstraint=eastwest;strokeColor=inherit;top=0;left=0;right=0;bottom=0;" vertex="1" parent="hjU8-SRuWJ7MqtnoK7Vt-309">
          <mxGeometry y="214" width="228" height="30" as="geometry" />
        </mxCell>
        <mxCell id="hjU8-SRuWJ7MqtnoK7Vt-329" value="" style="shape=partialRectangle;overflow=hidden;connectable=0;fillColor=none;strokeColor=inherit;top=0;left=0;bottom=0;right=0;" vertex="1" parent="hjU8-SRuWJ7MqtnoK7Vt-328">
          <mxGeometry width="30" height="30" as="geometry">
            <mxRectangle width="30" height="30" as="alternateBounds" />
          </mxGeometry>
        </mxCell>
        <mxCell id="hjU8-SRuWJ7MqtnoK7Vt-330" value="other_student_details VARCHAR" style="shape=partialRectangle;overflow=hidden;connectable=0;fillColor=none;align=left;strokeColor=inherit;top=0;left=0;bottom=0;right=0;spacingLeft=6;" vertex="1" parent="hjU8-SRuWJ7MqtnoK7Vt-328">
          <mxGeometry x="30" width="198" height="30" as="geometry">
            <mxRectangle width="198" height="30" as="alternateBounds" />
          </mxGeometry>
        </mxCell>
        <mxCell id="hjU8-SRuWJ7MqtnoK7Vt-331" value="Parent" style="shape=table;startSize=30;container=1;collapsible=1;childLayout=tableLayout;fixedRows=1;rowLines=0;fontStyle=1;align=center;resizeLast=1;" vertex="1" parent="1">
          <mxGeometry x="28" y="380" width="223" height="210" as="geometry" />
        </mxCell>
        <mxCell id="hjU8-SRuWJ7MqtnoK7Vt-332" value="" style="shape=tableRow;horizontal=0;startSize=0;swimlaneHead=0;swimlaneBody=0;fillColor=none;collapsible=0;dropTarget=0;points=[[0,0.5],[1,0.5]];portConstraint=eastwest;strokeColor=inherit;top=0;left=0;right=0;bottom=1;" vertex="1" parent="hjU8-SRuWJ7MqtnoK7Vt-331">
          <mxGeometry y="30" width="223" height="30" as="geometry" />
        </mxCell>
        <mxCell id="hjU8-SRuWJ7MqtnoK7Vt-333" value="PK" style="shape=partialRectangle;overflow=hidden;connectable=0;fillColor=none;strokeColor=inherit;top=0;left=0;bottom=0;right=0;fontStyle=1;" vertex="1" parent="hjU8-SRuWJ7MqtnoK7Vt-332">
          <mxGeometry width="30" height="30" as="geometry">
            <mxRectangle width="30" height="30" as="alternateBounds" />
          </mxGeometry>
        </mxCell>
        <mxCell id="hjU8-SRuWJ7MqtnoK7Vt-334" value="parent_id INT " style="shape=partialRectangle;overflow=hidden;connectable=0;fillColor=none;align=left;strokeColor=inherit;top=0;left=0;bottom=0;right=0;spacingLeft=6;fontStyle=5;" vertex="1" parent="hjU8-SRuWJ7MqtnoK7Vt-332">
          <mxGeometry x="30" width="193" height="30" as="geometry">
            <mxRectangle width="193" height="30" as="alternateBounds" />
          </mxGeometry>
        </mxCell>
        <mxCell id="hjU8-SRuWJ7MqtnoK7Vt-335" value="" style="shape=tableRow;horizontal=0;startSize=0;swimlaneHead=0;swimlaneBody=0;fillColor=none;collapsible=0;dropTarget=0;points=[[0,0.5],[1,0.5]];portConstraint=eastwest;strokeColor=inherit;top=0;left=0;right=0;bottom=0;" vertex="1" parent="hjU8-SRuWJ7MqtnoK7Vt-331">
          <mxGeometry y="60" width="223" height="30" as="geometry" />
        </mxCell>
        <mxCell id="hjU8-SRuWJ7MqtnoK7Vt-336" value="" style="shape=partialRectangle;overflow=hidden;connectable=0;fillColor=none;strokeColor=inherit;top=0;left=0;bottom=0;right=0;" vertex="1" parent="hjU8-SRuWJ7MqtnoK7Vt-335">
          <mxGeometry width="30" height="30" as="geometry">
            <mxRectangle width="30" height="30" as="alternateBounds" />
          </mxGeometry>
        </mxCell>
        <mxCell id="hjU8-SRuWJ7MqtnoK7Vt-337" value="first_name VARCHAR" style="shape=partialRectangle;overflow=hidden;connectable=0;fillColor=none;align=left;strokeColor=inherit;top=0;left=0;bottom=0;right=0;spacingLeft=6;" vertex="1" parent="hjU8-SRuWJ7MqtnoK7Vt-335">
          <mxGeometry x="30" width="193" height="30" as="geometry">
            <mxRectangle width="193" height="30" as="alternateBounds" />
          </mxGeometry>
        </mxCell>
        <mxCell id="hjU8-SRuWJ7MqtnoK7Vt-338" value="" style="shape=tableRow;horizontal=0;startSize=0;swimlaneHead=0;swimlaneBody=0;fillColor=none;collapsible=0;dropTarget=0;points=[[0,0.5],[1,0.5]];portConstraint=eastwest;strokeColor=inherit;top=0;left=0;right=0;bottom=0;" vertex="1" parent="hjU8-SRuWJ7MqtnoK7Vt-331">
          <mxGeometry y="90" width="223" height="30" as="geometry" />
        </mxCell>
        <mxCell id="hjU8-SRuWJ7MqtnoK7Vt-339" value="" style="shape=partialRectangle;overflow=hidden;connectable=0;fillColor=none;strokeColor=inherit;top=0;left=0;bottom=0;right=0;" vertex="1" parent="hjU8-SRuWJ7MqtnoK7Vt-338">
          <mxGeometry width="30" height="30" as="geometry">
            <mxRectangle width="30" height="30" as="alternateBounds" />
          </mxGeometry>
        </mxCell>
        <mxCell id="hjU8-SRuWJ7MqtnoK7Vt-340" value="middle_name VARCHAR" style="shape=partialRectangle;overflow=hidden;connectable=0;fillColor=none;align=left;strokeColor=inherit;top=0;left=0;bottom=0;right=0;spacingLeft=6;" vertex="1" parent="hjU8-SRuWJ7MqtnoK7Vt-338">
          <mxGeometry x="30" width="193" height="30" as="geometry">
            <mxRectangle width="193" height="30" as="alternateBounds" />
          </mxGeometry>
        </mxCell>
        <mxCell id="hjU8-SRuWJ7MqtnoK7Vt-341" value="" style="shape=tableRow;horizontal=0;startSize=0;swimlaneHead=0;swimlaneBody=0;fillColor=none;collapsible=0;dropTarget=0;points=[[0,0.5],[1,0.5]];portConstraint=eastwest;strokeColor=inherit;top=0;left=0;right=0;bottom=0;" vertex="1" parent="hjU8-SRuWJ7MqtnoK7Vt-331">
          <mxGeometry y="120" width="223" height="30" as="geometry" />
        </mxCell>
        <mxCell id="hjU8-SRuWJ7MqtnoK7Vt-342" value="" style="shape=partialRectangle;overflow=hidden;connectable=0;fillColor=none;strokeColor=inherit;top=0;left=0;bottom=0;right=0;" vertex="1" parent="hjU8-SRuWJ7MqtnoK7Vt-341">
          <mxGeometry width="30" height="30" as="geometry">
            <mxRectangle width="30" height="30" as="alternateBounds" />
          </mxGeometry>
        </mxCell>
        <mxCell id="hjU8-SRuWJ7MqtnoK7Vt-343" value="last_name VARCHAR" style="shape=partialRectangle;overflow=hidden;connectable=0;fillColor=none;align=left;strokeColor=inherit;top=0;left=0;bottom=0;right=0;spacingLeft=6;" vertex="1" parent="hjU8-SRuWJ7MqtnoK7Vt-341">
          <mxGeometry x="30" width="193" height="30" as="geometry">
            <mxRectangle width="193" height="30" as="alternateBounds" />
          </mxGeometry>
        </mxCell>
        <mxCell id="hjU8-SRuWJ7MqtnoK7Vt-344" value="" style="shape=tableRow;horizontal=0;startSize=0;swimlaneHead=0;swimlaneBody=0;fillColor=none;collapsible=0;dropTarget=0;points=[[0,0.5],[1,0.5]];portConstraint=eastwest;strokeColor=inherit;top=0;left=0;right=0;bottom=0;" vertex="1" parent="hjU8-SRuWJ7MqtnoK7Vt-331">
          <mxGeometry y="150" width="223" height="30" as="geometry" />
        </mxCell>
        <mxCell id="hjU8-SRuWJ7MqtnoK7Vt-345" value="" style="shape=partialRectangle;overflow=hidden;connectable=0;fillColor=none;strokeColor=inherit;top=0;left=0;bottom=0;right=0;" vertex="1" parent="hjU8-SRuWJ7MqtnoK7Vt-344">
          <mxGeometry width="30" height="30" as="geometry">
            <mxRectangle width="30" height="30" as="alternateBounds" />
          </mxGeometry>
        </mxCell>
        <mxCell id="hjU8-SRuWJ7MqtnoK7Vt-346" value="gender VARCHAR" style="shape=partialRectangle;overflow=hidden;connectable=0;fillColor=none;align=left;strokeColor=inherit;top=0;left=0;bottom=0;right=0;spacingLeft=6;" vertex="1" parent="hjU8-SRuWJ7MqtnoK7Vt-344">
          <mxGeometry x="30" width="193" height="30" as="geometry">
            <mxRectangle width="193" height="30" as="alternateBounds" />
          </mxGeometry>
        </mxCell>
        <mxCell id="hjU8-SRuWJ7MqtnoK7Vt-347" value="" style="shape=tableRow;horizontal=0;startSize=0;swimlaneHead=0;swimlaneBody=0;fillColor=none;collapsible=0;dropTarget=0;points=[[0,0.5],[1,0.5]];portConstraint=eastwest;strokeColor=inherit;top=0;left=0;right=0;bottom=0;" vertex="1" parent="hjU8-SRuWJ7MqtnoK7Vt-331">
          <mxGeometry y="180" width="223" height="30" as="geometry" />
        </mxCell>
        <mxCell id="hjU8-SRuWJ7MqtnoK7Vt-348" value="" style="shape=partialRectangle;overflow=hidden;connectable=0;fillColor=none;strokeColor=inherit;top=0;left=0;bottom=0;right=0;" vertex="1" parent="hjU8-SRuWJ7MqtnoK7Vt-347">
          <mxGeometry width="30" height="30" as="geometry">
            <mxRectangle width="30" height="30" as="alternateBounds" />
          </mxGeometry>
        </mxCell>
        <mxCell id="hjU8-SRuWJ7MqtnoK7Vt-349" value="other_parent_details VARCHAR" style="shape=partialRectangle;overflow=hidden;connectable=0;fillColor=none;align=left;strokeColor=inherit;top=0;left=0;bottom=0;right=0;spacingLeft=6;" vertex="1" parent="hjU8-SRuWJ7MqtnoK7Vt-347">
          <mxGeometry x="30" width="193" height="30" as="geometry">
            <mxRectangle width="193" height="30" as="alternateBounds" />
          </mxGeometry>
        </mxCell>
        <mxCell id="hjU8-SRuWJ7MqtnoK7Vt-350" value="Teachers" style="shape=table;startSize=30;container=1;collapsible=1;childLayout=tableLayout;fixedRows=1;rowLines=0;fontStyle=1;align=center;resizeLast=1;" vertex="1" parent="1">
          <mxGeometry x="542.78" y="305.5" width="198.71108910345254" height="180" as="geometry" />
        </mxCell>
        <mxCell id="hjU8-SRuWJ7MqtnoK7Vt-351" value="" style="shape=tableRow;horizontal=0;startSize=0;swimlaneHead=0;swimlaneBody=0;fillColor=none;collapsible=0;dropTarget=0;points=[[0,0.5],[1,0.5]];portConstraint=eastwest;strokeColor=inherit;top=0;left=0;right=0;bottom=1;" vertex="1" parent="hjU8-SRuWJ7MqtnoK7Vt-350">
          <mxGeometry y="30" width="198.71108910345254" height="30" as="geometry" />
        </mxCell>
        <mxCell id="hjU8-SRuWJ7MqtnoK7Vt-352" value="FK" style="shape=partialRectangle;overflow=hidden;connectable=0;fillColor=none;strokeColor=inherit;top=0;left=0;bottom=0;right=0;fontStyle=1;" vertex="1" parent="hjU8-SRuWJ7MqtnoK7Vt-351">
          <mxGeometry width="30" height="30" as="geometry">
            <mxRectangle width="30" height="30" as="alternateBounds" />
          </mxGeometry>
        </mxCell>
        <mxCell id="hjU8-SRuWJ7MqtnoK7Vt-353" value="institute_id INT" style="shape=partialRectangle;overflow=hidden;connectable=0;fillColor=none;align=left;strokeColor=inherit;top=0;left=0;bottom=0;right=0;spacingLeft=6;fontStyle=5;" vertex="1" parent="hjU8-SRuWJ7MqtnoK7Vt-351">
          <mxGeometry x="30" width="168.71108910345254" height="30" as="geometry">
            <mxRectangle width="168.71108910345254" height="30" as="alternateBounds" />
          </mxGeometry>
        </mxCell>
        <mxCell id="hjU8-SRuWJ7MqtnoK7Vt-354" value="" style="shape=tableRow;horizontal=0;startSize=0;swimlaneHead=0;swimlaneBody=0;fillColor=none;collapsible=0;dropTarget=0;points=[[0,0.5],[1,0.5]];portConstraint=eastwest;strokeColor=inherit;top=0;left=0;right=0;bottom=1;" vertex="1" parent="hjU8-SRuWJ7MqtnoK7Vt-350">
          <mxGeometry y="60" width="198.71108910345254" height="30" as="geometry" />
        </mxCell>
        <mxCell id="hjU8-SRuWJ7MqtnoK7Vt-355" value="PK" style="shape=partialRectangle;overflow=hidden;connectable=0;fillColor=none;strokeColor=inherit;top=0;left=0;bottom=0;right=0;fontStyle=1;" vertex="1" parent="hjU8-SRuWJ7MqtnoK7Vt-354">
          <mxGeometry width="30" height="30" as="geometry">
            <mxRectangle width="30" height="30" as="alternateBounds" />
          </mxGeometry>
        </mxCell>
        <mxCell id="hjU8-SRuWJ7MqtnoK7Vt-356" value="teacher_id INT " style="shape=partialRectangle;overflow=hidden;connectable=0;fillColor=none;align=left;strokeColor=inherit;top=0;left=0;bottom=0;right=0;spacingLeft=6;fontStyle=5;" vertex="1" parent="hjU8-SRuWJ7MqtnoK7Vt-354">
          <mxGeometry x="30" width="168.71108910345254" height="30" as="geometry">
            <mxRectangle width="168.71108910345254" height="30" as="alternateBounds" />
          </mxGeometry>
        </mxCell>
        <mxCell id="hjU8-SRuWJ7MqtnoK7Vt-357" value="" style="shape=tableRow;horizontal=0;startSize=0;swimlaneHead=0;swimlaneBody=0;fillColor=none;collapsible=0;dropTarget=0;points=[[0,0.5],[1,0.5]];portConstraint=eastwest;strokeColor=inherit;top=0;left=0;right=0;bottom=0;" vertex="1" parent="hjU8-SRuWJ7MqtnoK7Vt-350">
          <mxGeometry y="90" width="198.71108910345254" height="30" as="geometry" />
        </mxCell>
        <mxCell id="hjU8-SRuWJ7MqtnoK7Vt-358" value="" style="shape=partialRectangle;overflow=hidden;connectable=0;fillColor=none;strokeColor=inherit;top=0;left=0;bottom=0;right=0;" vertex="1" parent="hjU8-SRuWJ7MqtnoK7Vt-357">
          <mxGeometry width="30" height="30" as="geometry">
            <mxRectangle width="30" height="30" as="alternateBounds" />
          </mxGeometry>
        </mxCell>
        <mxCell id="hjU8-SRuWJ7MqtnoK7Vt-359" value="first_name VARCHAR" style="shape=partialRectangle;overflow=hidden;connectable=0;fillColor=none;align=left;strokeColor=inherit;top=0;left=0;bottom=0;right=0;spacingLeft=6;" vertex="1" parent="hjU8-SRuWJ7MqtnoK7Vt-357">
          <mxGeometry x="30" width="168.71108910345254" height="30" as="geometry">
            <mxRectangle width="168.71108910345254" height="30" as="alternateBounds" />
          </mxGeometry>
        </mxCell>
        <mxCell id="hjU8-SRuWJ7MqtnoK7Vt-363" value="" style="shape=tableRow;horizontal=0;startSize=0;swimlaneHead=0;swimlaneBody=0;fillColor=none;collapsible=0;dropTarget=0;points=[[0,0.5],[1,0.5]];portConstraint=eastwest;strokeColor=inherit;top=0;left=0;right=0;bottom=0;" vertex="1" parent="hjU8-SRuWJ7MqtnoK7Vt-350">
          <mxGeometry y="120" width="198.71108910345254" height="30" as="geometry" />
        </mxCell>
        <mxCell id="hjU8-SRuWJ7MqtnoK7Vt-364" value="" style="shape=partialRectangle;overflow=hidden;connectable=0;fillColor=none;strokeColor=inherit;top=0;left=0;bottom=0;right=0;" vertex="1" parent="hjU8-SRuWJ7MqtnoK7Vt-363">
          <mxGeometry width="30" height="30" as="geometry">
            <mxRectangle width="30" height="30" as="alternateBounds" />
          </mxGeometry>
        </mxCell>
        <mxCell id="hjU8-SRuWJ7MqtnoK7Vt-365" value="last_name VARCHAR" style="shape=partialRectangle;overflow=hidden;connectable=0;fillColor=none;align=left;strokeColor=inherit;top=0;left=0;bottom=0;right=0;spacingLeft=6;" vertex="1" parent="hjU8-SRuWJ7MqtnoK7Vt-363">
          <mxGeometry x="30" width="168.71108910345254" height="30" as="geometry">
            <mxRectangle width="168.71108910345254" height="30" as="alternateBounds" />
          </mxGeometry>
        </mxCell>
        <mxCell id="hjU8-SRuWJ7MqtnoK7Vt-366" value="" style="shape=tableRow;horizontal=0;startSize=0;swimlaneHead=0;swimlaneBody=0;fillColor=none;collapsible=0;dropTarget=0;points=[[0,0.5],[1,0.5]];portConstraint=eastwest;strokeColor=inherit;top=0;left=0;right=0;bottom=0;" vertex="1" parent="hjU8-SRuWJ7MqtnoK7Vt-350">
          <mxGeometry y="150" width="198.71108910345254" height="30" as="geometry" />
        </mxCell>
        <mxCell id="hjU8-SRuWJ7MqtnoK7Vt-367" value="" style="shape=partialRectangle;overflow=hidden;connectable=0;fillColor=none;strokeColor=inherit;top=0;left=0;bottom=0;right=0;" vertex="1" parent="hjU8-SRuWJ7MqtnoK7Vt-366">
          <mxGeometry width="30" height="30" as="geometry">
            <mxRectangle width="30" height="30" as="alternateBounds" />
          </mxGeometry>
        </mxCell>
        <mxCell id="hjU8-SRuWJ7MqtnoK7Vt-368" value="gender VARCHAR" style="shape=partialRectangle;overflow=hidden;connectable=0;fillColor=none;align=left;strokeColor=inherit;top=0;left=0;bottom=0;right=0;spacingLeft=6;" vertex="1" parent="hjU8-SRuWJ7MqtnoK7Vt-366">
          <mxGeometry x="30" width="168.71108910345254" height="30" as="geometry">
            <mxRectangle width="168.71108910345254" height="30" as="alternateBounds" />
          </mxGeometry>
        </mxCell>
        <mxCell id="hjU8-SRuWJ7MqtnoK7Vt-372" value="Institute" style="shape=table;startSize=30;container=1;collapsible=1;childLayout=tableLayout;fixedRows=1;rowLines=0;fontStyle=1;align=center;resizeLast=1;fillColor=none;" vertex="1" parent="1">
          <mxGeometry x="542.78" y="88" width="223" height="180" as="geometry" />
        </mxCell>
        <mxCell id="hjU8-SRuWJ7MqtnoK7Vt-373" value="" style="shape=tableRow;horizontal=0;startSize=0;swimlaneHead=0;swimlaneBody=0;fillColor=none;collapsible=0;dropTarget=0;points=[[0,0.5],[1,0.5]];portConstraint=eastwest;strokeColor=inherit;top=0;left=0;right=0;bottom=1;" vertex="1" parent="hjU8-SRuWJ7MqtnoK7Vt-372">
          <mxGeometry y="30" width="223" height="30" as="geometry" />
        </mxCell>
        <mxCell id="hjU8-SRuWJ7MqtnoK7Vt-374" value="PK" style="shape=partialRectangle;overflow=hidden;connectable=0;fillColor=none;strokeColor=inherit;top=0;left=0;bottom=0;right=0;fontStyle=1;" vertex="1" parent="hjU8-SRuWJ7MqtnoK7Vt-373">
          <mxGeometry width="30" height="30" as="geometry">
            <mxRectangle width="30" height="30" as="alternateBounds" />
          </mxGeometry>
        </mxCell>
        <mxCell id="hjU8-SRuWJ7MqtnoK7Vt-375" value="institute_id INT " style="shape=partialRectangle;overflow=hidden;connectable=0;fillColor=none;align=left;strokeColor=inherit;top=0;left=0;bottom=0;right=0;spacingLeft=6;fontStyle=5;" vertex="1" parent="hjU8-SRuWJ7MqtnoK7Vt-373">
          <mxGeometry x="30" width="193" height="30" as="geometry">
            <mxRectangle width="193" height="30" as="alternateBounds" />
          </mxGeometry>
        </mxCell>
        <mxCell id="hjU8-SRuWJ7MqtnoK7Vt-608" value="" style="shape=tableRow;horizontal=0;startSize=0;swimlaneHead=0;swimlaneBody=0;fillColor=none;collapsible=0;dropTarget=0;points=[[0,0.5],[1,0.5]];portConstraint=eastwest;strokeColor=inherit;top=0;left=0;right=0;bottom=1;" vertex="1" parent="hjU8-SRuWJ7MqtnoK7Vt-372">
          <mxGeometry y="60" width="223" height="30" as="geometry" />
        </mxCell>
        <mxCell id="hjU8-SRuWJ7MqtnoK7Vt-609" value="FK" style="shape=partialRectangle;overflow=hidden;connectable=0;fillColor=none;strokeColor=inherit;top=0;left=0;bottom=0;right=0;fontStyle=1;" vertex="1" parent="hjU8-SRuWJ7MqtnoK7Vt-608">
          <mxGeometry width="30" height="30" as="geometry">
            <mxRectangle width="30" height="30" as="alternateBounds" />
          </mxGeometry>
        </mxCell>
        <mxCell id="hjU8-SRuWJ7MqtnoK7Vt-610" value="address_id INT " style="shape=partialRectangle;overflow=hidden;connectable=0;fillColor=none;align=left;strokeColor=inherit;top=0;left=0;bottom=0;right=0;spacingLeft=6;fontStyle=5;" vertex="1" parent="hjU8-SRuWJ7MqtnoK7Vt-608">
          <mxGeometry x="30" width="193" height="30" as="geometry">
            <mxRectangle width="193" height="30" as="alternateBounds" />
          </mxGeometry>
        </mxCell>
        <mxCell id="hjU8-SRuWJ7MqtnoK7Vt-611" value="" style="shape=tableRow;horizontal=0;startSize=0;swimlaneHead=0;swimlaneBody=0;fillColor=none;collapsible=0;dropTarget=0;points=[[0,0.5],[1,0.5]];portConstraint=eastwest;strokeColor=#FFFFFF;top=0;left=0;right=0;bottom=1;" vertex="1" parent="hjU8-SRuWJ7MqtnoK7Vt-372">
          <mxGeometry y="90" width="223" height="30" as="geometry" />
        </mxCell>
        <mxCell id="hjU8-SRuWJ7MqtnoK7Vt-612" value="" style="shape=partialRectangle;overflow=hidden;connectable=0;fillColor=none;strokeColor=inherit;top=0;left=0;bottom=0;right=0;fontStyle=1;" vertex="1" parent="hjU8-SRuWJ7MqtnoK7Vt-611">
          <mxGeometry width="30" height="30" as="geometry">
            <mxRectangle width="30" height="30" as="alternateBounds" />
          </mxGeometry>
        </mxCell>
        <mxCell id="hjU8-SRuWJ7MqtnoK7Vt-613" value="institute_name VARCHAR" style="shape=partialRectangle;overflow=hidden;connectable=0;fillColor=none;align=left;strokeColor=inherit;top=0;left=0;bottom=0;right=0;spacingLeft=6;fontStyle=4;labelBorderColor=none;" vertex="1" parent="hjU8-SRuWJ7MqtnoK7Vt-611">
          <mxGeometry x="30" width="193" height="30" as="geometry">
            <mxRectangle width="193" height="30" as="alternateBounds" />
          </mxGeometry>
        </mxCell>
        <mxCell id="hjU8-SRuWJ7MqtnoK7Vt-617" value="" style="shape=tableRow;horizontal=0;startSize=0;swimlaneHead=0;swimlaneBody=0;fillColor=none;collapsible=0;dropTarget=0;points=[[0,0.5],[1,0.5]];portConstraint=eastwest;strokeColor=#FFFFFF;top=0;left=0;right=0;bottom=1;" vertex="1" parent="hjU8-SRuWJ7MqtnoK7Vt-372">
          <mxGeometry y="120" width="223" height="30" as="geometry" />
        </mxCell>
        <mxCell id="hjU8-SRuWJ7MqtnoK7Vt-618" value="" style="shape=partialRectangle;overflow=hidden;connectable=0;fillColor=none;strokeColor=inherit;top=0;left=0;bottom=0;right=0;fontStyle=1;" vertex="1" parent="hjU8-SRuWJ7MqtnoK7Vt-617">
          <mxGeometry width="30" height="30" as="geometry">
            <mxRectangle width="30" height="30" as="alternateBounds" />
          </mxGeometry>
        </mxCell>
        <mxCell id="hjU8-SRuWJ7MqtnoK7Vt-619" value="institute_principal VARCHAR" style="shape=partialRectangle;overflow=hidden;connectable=0;fillColor=none;align=left;strokeColor=inherit;top=0;left=0;bottom=0;right=0;spacingLeft=6;fontStyle=4;" vertex="1" parent="hjU8-SRuWJ7MqtnoK7Vt-617">
          <mxGeometry x="30" width="193" height="30" as="geometry">
            <mxRectangle width="193" height="30" as="alternateBounds" />
          </mxGeometry>
        </mxCell>
        <mxCell id="hjU8-SRuWJ7MqtnoK7Vt-620" value="" style="shape=tableRow;horizontal=0;startSize=0;swimlaneHead=0;swimlaneBody=0;fillColor=none;collapsible=0;dropTarget=0;points=[[0,0.5],[1,0.5]];portConstraint=eastwest;strokeColor=inherit;top=0;left=0;right=0;bottom=1;" vertex="1" parent="hjU8-SRuWJ7MqtnoK7Vt-372">
          <mxGeometry y="150" width="223" height="30" as="geometry" />
        </mxCell>
        <mxCell id="hjU8-SRuWJ7MqtnoK7Vt-621" value="" style="shape=partialRectangle;overflow=hidden;connectable=0;fillColor=none;strokeColor=inherit;top=0;left=0;bottom=0;right=0;fontStyle=1;" vertex="1" parent="hjU8-SRuWJ7MqtnoK7Vt-620">
          <mxGeometry width="30" height="30" as="geometry">
            <mxRectangle width="30" height="30" as="alternateBounds" />
          </mxGeometry>
        </mxCell>
        <mxCell id="hjU8-SRuWJ7MqtnoK7Vt-622" value="other_institute_details VARCHAR" style="shape=partialRectangle;overflow=hidden;connectable=0;fillColor=none;align=left;strokeColor=inherit;top=0;left=0;bottom=0;right=0;spacingLeft=6;fontStyle=4;" vertex="1" parent="hjU8-SRuWJ7MqtnoK7Vt-620">
          <mxGeometry x="30" width="193" height="30" as="geometry">
            <mxRectangle width="193" height="30" as="alternateBounds" />
          </mxGeometry>
        </mxCell>
        <mxCell id="hjU8-SRuWJ7MqtnoK7Vt-385" value="Classes" style="shape=table;startSize=30;container=1;collapsible=1;childLayout=tableLayout;fixedRows=1;rowLines=0;fontStyle=1;align=center;resizeLast=1;" vertex="1" parent="1">
          <mxGeometry x="943.0000000000001" y="435" width="187.63390060950996" height="180" as="geometry" />
        </mxCell>
        <mxCell id="hjU8-SRuWJ7MqtnoK7Vt-631" value="" style="shape=tableRow;horizontal=0;startSize=0;swimlaneHead=0;swimlaneBody=0;fillColor=none;collapsible=0;dropTarget=0;points=[[0,0.5],[1,0.5]];portConstraint=eastwest;strokeColor=inherit;top=0;left=0;right=0;bottom=1;" vertex="1" parent="hjU8-SRuWJ7MqtnoK7Vt-385">
          <mxGeometry y="30" width="187.63390060950996" height="30" as="geometry" />
        </mxCell>
        <mxCell id="hjU8-SRuWJ7MqtnoK7Vt-632" value="FK" style="shape=partialRectangle;overflow=hidden;connectable=0;fillColor=none;strokeColor=inherit;top=0;left=0;bottom=0;right=0;fontStyle=1;" vertex="1" parent="hjU8-SRuWJ7MqtnoK7Vt-631">
          <mxGeometry width="30" height="30" as="geometry">
            <mxRectangle width="30" height="30" as="alternateBounds" />
          </mxGeometry>
        </mxCell>
        <mxCell id="hjU8-SRuWJ7MqtnoK7Vt-633" value="subject_id INT " style="shape=partialRectangle;overflow=hidden;connectable=0;fillColor=none;align=left;strokeColor=inherit;top=0;left=0;bottom=0;right=0;spacingLeft=6;fontStyle=5;" vertex="1" parent="hjU8-SRuWJ7MqtnoK7Vt-631">
          <mxGeometry x="30" width="157.63390060950996" height="30" as="geometry">
            <mxRectangle width="157.63390060950996" height="30" as="alternateBounds" />
          </mxGeometry>
        </mxCell>
        <mxCell id="hjU8-SRuWJ7MqtnoK7Vt-386" value="" style="shape=tableRow;horizontal=0;startSize=0;swimlaneHead=0;swimlaneBody=0;fillColor=none;collapsible=0;dropTarget=0;points=[[0,0.5],[1,0.5]];portConstraint=eastwest;strokeColor=inherit;top=0;left=0;right=0;bottom=1;" vertex="1" parent="hjU8-SRuWJ7MqtnoK7Vt-385">
          <mxGeometry y="60" width="187.63390060950996" height="30" as="geometry" />
        </mxCell>
        <mxCell id="hjU8-SRuWJ7MqtnoK7Vt-387" value="PK" style="shape=partialRectangle;overflow=hidden;connectable=0;fillColor=none;strokeColor=inherit;top=0;left=0;bottom=0;right=0;fontStyle=1;" vertex="1" parent="hjU8-SRuWJ7MqtnoK7Vt-386">
          <mxGeometry width="30" height="30" as="geometry">
            <mxRectangle width="30" height="30" as="alternateBounds" />
          </mxGeometry>
        </mxCell>
        <mxCell id="hjU8-SRuWJ7MqtnoK7Vt-388" value="class_id INT " style="shape=partialRectangle;overflow=hidden;connectable=0;fillColor=none;align=left;strokeColor=inherit;top=0;left=0;bottom=0;right=0;spacingLeft=6;fontStyle=5;" vertex="1" parent="hjU8-SRuWJ7MqtnoK7Vt-386">
          <mxGeometry x="30" width="157.63390060950996" height="30" as="geometry">
            <mxRectangle width="157.63390060950996" height="30" as="alternateBounds" />
          </mxGeometry>
        </mxCell>
        <mxCell id="hjU8-SRuWJ7MqtnoK7Vt-648" value="" style="shape=tableRow;horizontal=0;startSize=0;swimlaneHead=0;swimlaneBody=0;fillColor=none;collapsible=0;dropTarget=0;points=[[0,0.5],[1,0.5]];portConstraint=eastwest;strokeColor=inherit;top=0;left=0;right=0;bottom=1;" vertex="1" parent="hjU8-SRuWJ7MqtnoK7Vt-385">
          <mxGeometry y="90" width="187.63390060950996" height="30" as="geometry" />
        </mxCell>
        <mxCell id="hjU8-SRuWJ7MqtnoK7Vt-649" value="FK" style="shape=partialRectangle;overflow=hidden;connectable=0;fillColor=none;strokeColor=inherit;top=0;left=0;bottom=0;right=0;fontStyle=1;" vertex="1" parent="hjU8-SRuWJ7MqtnoK7Vt-648">
          <mxGeometry width="30" height="30" as="geometry">
            <mxRectangle width="30" height="30" as="alternateBounds" />
          </mxGeometry>
        </mxCell>
        <mxCell id="hjU8-SRuWJ7MqtnoK7Vt-650" value="course_id INT " style="shape=partialRectangle;overflow=hidden;connectable=0;fillColor=none;align=left;strokeColor=inherit;top=0;left=0;bottom=0;right=0;spacingLeft=6;fontStyle=5;" vertex="1" parent="hjU8-SRuWJ7MqtnoK7Vt-648">
          <mxGeometry x="30" width="157.63390060950996" height="30" as="geometry">
            <mxRectangle width="157.63390060950996" height="30" as="alternateBounds" />
          </mxGeometry>
        </mxCell>
        <mxCell id="hjU8-SRuWJ7MqtnoK7Vt-634" value="" style="shape=tableRow;horizontal=0;startSize=0;swimlaneHead=0;swimlaneBody=0;fillColor=none;collapsible=0;dropTarget=0;points=[[0,0.5],[1,0.5]];portConstraint=eastwest;strokeColor=inherit;top=0;left=0;right=0;bottom=1;" vertex="1" parent="hjU8-SRuWJ7MqtnoK7Vt-385">
          <mxGeometry y="120" width="187.63390060950996" height="30" as="geometry" />
        </mxCell>
        <mxCell id="hjU8-SRuWJ7MqtnoK7Vt-635" value="FK" style="shape=partialRectangle;overflow=hidden;connectable=0;fillColor=none;strokeColor=inherit;top=0;left=0;bottom=0;right=0;fontStyle=1;" vertex="1" parent="hjU8-SRuWJ7MqtnoK7Vt-634">
          <mxGeometry width="30" height="30" as="geometry">
            <mxRectangle width="30" height="30" as="alternateBounds" />
          </mxGeometry>
        </mxCell>
        <mxCell id="hjU8-SRuWJ7MqtnoK7Vt-636" value="teacher_id INT " style="shape=partialRectangle;overflow=hidden;connectable=0;fillColor=none;align=left;strokeColor=inherit;top=0;left=0;bottom=0;right=0;spacingLeft=6;fontStyle=5;" vertex="1" parent="hjU8-SRuWJ7MqtnoK7Vt-634">
          <mxGeometry x="30" width="157.63390060950996" height="30" as="geometry">
            <mxRectangle width="157.63390060950996" height="30" as="alternateBounds" />
          </mxGeometry>
        </mxCell>
        <mxCell id="hjU8-SRuWJ7MqtnoK7Vt-392" value="" style="shape=tableRow;horizontal=0;startSize=0;swimlaneHead=0;swimlaneBody=0;fillColor=none;collapsible=0;dropTarget=0;points=[[0,0.5],[1,0.5]];portConstraint=eastwest;strokeColor=inherit;top=0;left=0;right=0;bottom=0;" vertex="1" parent="hjU8-SRuWJ7MqtnoK7Vt-385">
          <mxGeometry y="150" width="187.63390060950996" height="30" as="geometry" />
        </mxCell>
        <mxCell id="hjU8-SRuWJ7MqtnoK7Vt-393" value="" style="shape=partialRectangle;overflow=hidden;connectable=0;fillColor=none;strokeColor=inherit;top=0;left=0;bottom=0;right=0;" vertex="1" parent="hjU8-SRuWJ7MqtnoK7Vt-392">
          <mxGeometry width="30" height="30" as="geometry">
            <mxRectangle width="30" height="30" as="alternateBounds" />
          </mxGeometry>
        </mxCell>
        <mxCell id="hjU8-SRuWJ7MqtnoK7Vt-394" value="class_name VARCHAR" style="shape=partialRectangle;overflow=hidden;connectable=0;fillColor=none;align=left;strokeColor=inherit;top=0;left=0;bottom=0;right=0;spacingLeft=6;" vertex="1" parent="hjU8-SRuWJ7MqtnoK7Vt-392">
          <mxGeometry x="30" width="157.63390060950996" height="30" as="geometry">
            <mxRectangle width="157.63390060950996" height="30" as="alternateBounds" />
          </mxGeometry>
        </mxCell>
        <mxCell id="hjU8-SRuWJ7MqtnoK7Vt-395" value="Subject" style="shape=table;startSize=30;container=1;collapsible=1;childLayout=tableLayout;fixedRows=1;rowLines=0;fontStyle=1;align=center;resizeLast=1;" vertex="1" parent="1">
          <mxGeometry x="943" y="148" width="186.28633422851567" height="120" as="geometry" />
        </mxCell>
        <mxCell id="hjU8-SRuWJ7MqtnoK7Vt-689" value="" style="shape=tableRow;horizontal=0;startSize=0;swimlaneHead=0;swimlaneBody=0;fillColor=none;collapsible=0;dropTarget=0;points=[[0,0.5],[1,0.5]];portConstraint=eastwest;strokeColor=inherit;top=0;left=0;right=0;bottom=1;" vertex="1" parent="hjU8-SRuWJ7MqtnoK7Vt-395">
          <mxGeometry y="30" width="186.28633422851567" height="30" as="geometry" />
        </mxCell>
        <mxCell id="hjU8-SRuWJ7MqtnoK7Vt-690" value="FK" style="shape=partialRectangle;overflow=hidden;connectable=0;fillColor=none;strokeColor=inherit;top=0;left=0;bottom=0;right=0;fontStyle=1;" vertex="1" parent="hjU8-SRuWJ7MqtnoK7Vt-689">
          <mxGeometry width="30" height="30" as="geometry">
            <mxRectangle width="30" height="30" as="alternateBounds" />
          </mxGeometry>
        </mxCell>
        <mxCell id="hjU8-SRuWJ7MqtnoK7Vt-691" value="department_id INT " style="shape=partialRectangle;overflow=hidden;connectable=0;fillColor=none;align=left;strokeColor=inherit;top=0;left=0;bottom=0;right=0;spacingLeft=6;fontStyle=5;" vertex="1" parent="hjU8-SRuWJ7MqtnoK7Vt-689">
          <mxGeometry x="30" width="156.28633422851567" height="30" as="geometry">
            <mxRectangle width="156.28633422851567" height="30" as="alternateBounds" />
          </mxGeometry>
        </mxCell>
        <mxCell id="hjU8-SRuWJ7MqtnoK7Vt-396" value="" style="shape=tableRow;horizontal=0;startSize=0;swimlaneHead=0;swimlaneBody=0;fillColor=none;collapsible=0;dropTarget=0;points=[[0,0.5],[1,0.5]];portConstraint=eastwest;strokeColor=inherit;top=0;left=0;right=0;bottom=1;" vertex="1" parent="hjU8-SRuWJ7MqtnoK7Vt-395">
          <mxGeometry y="60" width="186.28633422851567" height="30" as="geometry" />
        </mxCell>
        <mxCell id="hjU8-SRuWJ7MqtnoK7Vt-397" value="PK" style="shape=partialRectangle;overflow=hidden;connectable=0;fillColor=none;strokeColor=inherit;top=0;left=0;bottom=0;right=0;fontStyle=1;" vertex="1" parent="hjU8-SRuWJ7MqtnoK7Vt-396">
          <mxGeometry width="30" height="30" as="geometry">
            <mxRectangle width="30" height="30" as="alternateBounds" />
          </mxGeometry>
        </mxCell>
        <mxCell id="hjU8-SRuWJ7MqtnoK7Vt-398" value="subject_id INT " style="shape=partialRectangle;overflow=hidden;connectable=0;fillColor=none;align=left;strokeColor=inherit;top=0;left=0;bottom=0;right=0;spacingLeft=6;fontStyle=5;" vertex="1" parent="hjU8-SRuWJ7MqtnoK7Vt-396">
          <mxGeometry x="30" width="156.28633422851567" height="30" as="geometry">
            <mxRectangle width="156.28633422851567" height="30" as="alternateBounds" />
          </mxGeometry>
        </mxCell>
        <mxCell id="hjU8-SRuWJ7MqtnoK7Vt-399" value="" style="shape=tableRow;horizontal=0;startSize=0;swimlaneHead=0;swimlaneBody=0;fillColor=none;collapsible=0;dropTarget=0;points=[[0,0.5],[1,0.5]];portConstraint=eastwest;strokeColor=inherit;top=0;left=0;right=0;bottom=0;" vertex="1" parent="hjU8-SRuWJ7MqtnoK7Vt-395">
          <mxGeometry y="90" width="186.28633422851567" height="30" as="geometry" />
        </mxCell>
        <mxCell id="hjU8-SRuWJ7MqtnoK7Vt-400" value="" style="shape=partialRectangle;overflow=hidden;connectable=0;fillColor=none;strokeColor=inherit;top=0;left=0;bottom=0;right=0;" vertex="1" parent="hjU8-SRuWJ7MqtnoK7Vt-399">
          <mxGeometry width="30" height="30" as="geometry">
            <mxRectangle width="30" height="30" as="alternateBounds" />
          </mxGeometry>
        </mxCell>
        <mxCell id="hjU8-SRuWJ7MqtnoK7Vt-401" value="subject_name VARCHAR" style="shape=partialRectangle;overflow=hidden;connectable=0;fillColor=none;align=left;strokeColor=inherit;top=0;left=0;bottom=0;right=0;spacingLeft=6;" vertex="1" parent="hjU8-SRuWJ7MqtnoK7Vt-399">
          <mxGeometry x="30" width="156.28633422851567" height="30" as="geometry">
            <mxRectangle width="156.28633422851567" height="30" as="alternateBounds" />
          </mxGeometry>
        </mxCell>
        <mxCell id="hjU8-SRuWJ7MqtnoK7Vt-402" value="Families" style="shape=table;startSize=30;container=1;collapsible=1;childLayout=tableLayout;fixedRows=1;rowLines=0;fontStyle=1;align=center;resizeLast=1;" vertex="1" parent="1">
          <mxGeometry x="32" y="837" width="203" height="120" as="geometry" />
        </mxCell>
        <mxCell id="hjU8-SRuWJ7MqtnoK7Vt-403" value="" style="shape=tableRow;horizontal=0;startSize=0;swimlaneHead=0;swimlaneBody=0;fillColor=none;collapsible=0;dropTarget=0;points=[[0,0.5],[1,0.5]];portConstraint=eastwest;strokeColor=inherit;top=0;left=0;right=0;bottom=1;" vertex="1" parent="hjU8-SRuWJ7MqtnoK7Vt-402">
          <mxGeometry y="30" width="203" height="30" as="geometry" />
        </mxCell>
        <mxCell id="hjU8-SRuWJ7MqtnoK7Vt-404" value="PK" style="shape=partialRectangle;overflow=hidden;connectable=0;fillColor=none;strokeColor=inherit;top=0;left=0;bottom=0;right=0;fontStyle=1;" vertex="1" parent="hjU8-SRuWJ7MqtnoK7Vt-403">
          <mxGeometry width="30" height="30" as="geometry">
            <mxRectangle width="30" height="30" as="alternateBounds" />
          </mxGeometry>
        </mxCell>
        <mxCell id="hjU8-SRuWJ7MqtnoK7Vt-405" value="family_id INT " style="shape=partialRectangle;overflow=hidden;connectable=0;fillColor=none;align=left;strokeColor=inherit;top=0;left=0;bottom=0;right=0;spacingLeft=6;fontStyle=5;" vertex="1" parent="hjU8-SRuWJ7MqtnoK7Vt-403">
          <mxGeometry x="30" width="173" height="30" as="geometry">
            <mxRectangle width="173" height="30" as="alternateBounds" />
          </mxGeometry>
        </mxCell>
        <mxCell id="hjU8-SRuWJ7MqtnoK7Vt-658" value="" style="shape=tableRow;horizontal=0;startSize=0;swimlaneHead=0;swimlaneBody=0;fillColor=none;collapsible=0;dropTarget=0;points=[[0,0.5],[1,0.5]];portConstraint=eastwest;strokeColor=inherit;top=0;left=0;right=0;bottom=1;" vertex="1" parent="hjU8-SRuWJ7MqtnoK7Vt-402">
          <mxGeometry y="60" width="203" height="30" as="geometry" />
        </mxCell>
        <mxCell id="hjU8-SRuWJ7MqtnoK7Vt-659" value="FK" style="shape=partialRectangle;overflow=hidden;connectable=0;fillColor=none;strokeColor=inherit;top=0;left=0;bottom=0;right=0;fontStyle=1;" vertex="1" parent="hjU8-SRuWJ7MqtnoK7Vt-658">
          <mxGeometry width="30" height="30" as="geometry">
            <mxRectangle width="30" height="30" as="alternateBounds" />
          </mxGeometry>
        </mxCell>
        <mxCell id="hjU8-SRuWJ7MqtnoK7Vt-660" value="parent_id INT " style="shape=partialRectangle;overflow=hidden;connectable=0;fillColor=none;align=left;strokeColor=inherit;top=0;left=0;bottom=0;right=0;spacingLeft=6;fontStyle=5;" vertex="1" parent="hjU8-SRuWJ7MqtnoK7Vt-658">
          <mxGeometry x="30" width="173" height="30" as="geometry">
            <mxRectangle width="173" height="30" as="alternateBounds" />
          </mxGeometry>
        </mxCell>
        <mxCell id="hjU8-SRuWJ7MqtnoK7Vt-409" value="" style="shape=tableRow;horizontal=0;startSize=0;swimlaneHead=0;swimlaneBody=0;fillColor=none;collapsible=0;dropTarget=0;points=[[0,0.5],[1,0.5]];portConstraint=eastwest;strokeColor=inherit;top=0;left=0;right=0;bottom=0;" vertex="1" parent="hjU8-SRuWJ7MqtnoK7Vt-402">
          <mxGeometry y="90" width="203" height="30" as="geometry" />
        </mxCell>
        <mxCell id="hjU8-SRuWJ7MqtnoK7Vt-410" value="" style="shape=partialRectangle;overflow=hidden;connectable=0;fillColor=none;strokeColor=inherit;top=0;left=0;bottom=0;right=0;" vertex="1" parent="hjU8-SRuWJ7MqtnoK7Vt-409">
          <mxGeometry width="30" height="30" as="geometry">
            <mxRectangle width="30" height="30" as="alternateBounds" />
          </mxGeometry>
        </mxCell>
        <mxCell id="hjU8-SRuWJ7MqtnoK7Vt-411" value="family_name VARCHAR" style="shape=partialRectangle;overflow=hidden;connectable=0;fillColor=none;align=left;strokeColor=inherit;top=0;left=0;bottom=0;right=0;spacingLeft=6;" vertex="1" parent="hjU8-SRuWJ7MqtnoK7Vt-409">
          <mxGeometry x="30" width="173" height="30" as="geometry">
            <mxRectangle width="173" height="30" as="alternateBounds" />
          </mxGeometry>
        </mxCell>
        <mxCell id="hjU8-SRuWJ7MqtnoK7Vt-415" value="Student_Parents" style="shape=table;startSize=30;container=1;collapsible=1;childLayout=tableLayout;fixedRows=1;rowLines=0;fontStyle=1;align=center;resizeLast=1;" vertex="1" parent="1">
          <mxGeometry x="313" y="353" width="147.48179931640635" height="85" as="geometry" />
        </mxCell>
        <mxCell id="hjU8-SRuWJ7MqtnoK7Vt-416" value="" style="shape=tableRow;horizontal=0;startSize=0;swimlaneHead=0;swimlaneBody=0;fillColor=none;collapsible=0;dropTarget=0;points=[[0,0.5],[1,0.5]];portConstraint=eastwest;strokeColor=inherit;top=0;left=0;right=0;bottom=1;" vertex="1" parent="hjU8-SRuWJ7MqtnoK7Vt-415">
          <mxGeometry y="30" width="147.48179931640635" height="30" as="geometry" />
        </mxCell>
        <mxCell id="hjU8-SRuWJ7MqtnoK7Vt-417" value="FK" style="shape=partialRectangle;overflow=hidden;connectable=0;fillColor=none;strokeColor=inherit;top=0;left=0;bottom=0;right=0;fontStyle=1;" vertex="1" parent="hjU8-SRuWJ7MqtnoK7Vt-416">
          <mxGeometry width="30" height="30" as="geometry">
            <mxRectangle width="30" height="30" as="alternateBounds" />
          </mxGeometry>
        </mxCell>
        <mxCell id="hjU8-SRuWJ7MqtnoK7Vt-418" value="parent_id INT" style="shape=partialRectangle;overflow=hidden;connectable=0;fillColor=none;align=left;strokeColor=inherit;top=0;left=0;bottom=0;right=0;spacingLeft=6;fontStyle=5;" vertex="1" parent="hjU8-SRuWJ7MqtnoK7Vt-416">
          <mxGeometry x="30" width="117.48179931640635" height="30" as="geometry">
            <mxRectangle width="117.48179931640635" height="30" as="alternateBounds" />
          </mxGeometry>
        </mxCell>
        <mxCell id="hjU8-SRuWJ7MqtnoK7Vt-419" value="" style="shape=tableRow;horizontal=0;startSize=0;swimlaneHead=0;swimlaneBody=0;fillColor=none;collapsible=0;dropTarget=0;points=[[0,0.5],[1,0.5]];portConstraint=eastwest;strokeColor=inherit;top=0;left=0;right=0;bottom=1;" vertex="1" parent="hjU8-SRuWJ7MqtnoK7Vt-415">
          <mxGeometry y="60" width="147.48179931640635" height="25" as="geometry" />
        </mxCell>
        <mxCell id="hjU8-SRuWJ7MqtnoK7Vt-420" value="FK" style="shape=partialRectangle;overflow=hidden;connectable=0;fillColor=none;strokeColor=inherit;top=0;left=0;bottom=0;right=0;fontStyle=1;" vertex="1" parent="hjU8-SRuWJ7MqtnoK7Vt-419">
          <mxGeometry width="30" height="25" as="geometry">
            <mxRectangle width="30" height="25" as="alternateBounds" />
          </mxGeometry>
        </mxCell>
        <mxCell id="hjU8-SRuWJ7MqtnoK7Vt-421" value="student_id INT" style="shape=partialRectangle;overflow=hidden;connectable=0;fillColor=none;align=left;strokeColor=inherit;top=0;left=0;bottom=0;right=0;spacingLeft=6;fontStyle=5;" vertex="1" parent="hjU8-SRuWJ7MqtnoK7Vt-419">
          <mxGeometry x="30" width="117.48179931640635" height="25" as="geometry">
            <mxRectangle width="117.48179931640635" height="25" as="alternateBounds" />
          </mxGeometry>
        </mxCell>
        <mxCell id="hjU8-SRuWJ7MqtnoK7Vt-434" value="Student_Addresses" style="shape=table;startSize=30;container=1;collapsible=1;childLayout=tableLayout;fixedRows=1;rowLines=0;fontStyle=1;align=center;resizeLast=1;" vertex="1" parent="1">
          <mxGeometry x="293" y="135" width="179.0272583007811" height="150" as="geometry" />
        </mxCell>
        <mxCell id="hjU8-SRuWJ7MqtnoK7Vt-435" value="" style="shape=tableRow;horizontal=0;startSize=0;swimlaneHead=0;swimlaneBody=0;fillColor=none;collapsible=0;dropTarget=0;points=[[0,0.5],[1,0.5]];portConstraint=eastwest;strokeColor=inherit;top=0;left=0;right=0;bottom=1;" vertex="1" parent="hjU8-SRuWJ7MqtnoK7Vt-434">
          <mxGeometry y="30" width="179.0272583007811" height="30" as="geometry" />
        </mxCell>
        <mxCell id="hjU8-SRuWJ7MqtnoK7Vt-436" value="FK" style="shape=partialRectangle;overflow=hidden;connectable=0;fillColor=none;strokeColor=inherit;top=0;left=0;bottom=0;right=0;fontStyle=1;" vertex="1" parent="hjU8-SRuWJ7MqtnoK7Vt-435">
          <mxGeometry width="30" height="30" as="geometry">
            <mxRectangle width="30" height="30" as="alternateBounds" />
          </mxGeometry>
        </mxCell>
        <mxCell id="hjU8-SRuWJ7MqtnoK7Vt-437" value="address_id INT" style="shape=partialRectangle;overflow=hidden;connectable=0;fillColor=none;align=left;strokeColor=inherit;top=0;left=0;bottom=0;right=0;spacingLeft=6;fontStyle=5;" vertex="1" parent="hjU8-SRuWJ7MqtnoK7Vt-435">
          <mxGeometry x="30" width="149.0272583007811" height="30" as="geometry">
            <mxRectangle width="149.0272583007811" height="30" as="alternateBounds" />
          </mxGeometry>
        </mxCell>
        <mxCell id="hjU8-SRuWJ7MqtnoK7Vt-438" value="" style="shape=tableRow;horizontal=0;startSize=0;swimlaneHead=0;swimlaneBody=0;fillColor=none;collapsible=0;dropTarget=0;points=[[0,0.5],[1,0.5]];portConstraint=eastwest;strokeColor=inherit;top=0;left=0;right=0;bottom=1;" vertex="1" parent="hjU8-SRuWJ7MqtnoK7Vt-434">
          <mxGeometry y="60" width="179.0272583007811" height="30" as="geometry" />
        </mxCell>
        <mxCell id="hjU8-SRuWJ7MqtnoK7Vt-439" value="FK" style="shape=partialRectangle;overflow=hidden;connectable=0;fillColor=none;strokeColor=inherit;top=0;left=0;bottom=0;right=0;fontStyle=1;" vertex="1" parent="hjU8-SRuWJ7MqtnoK7Vt-438">
          <mxGeometry width="30" height="30" as="geometry">
            <mxRectangle width="30" height="30" as="alternateBounds" />
          </mxGeometry>
        </mxCell>
        <mxCell id="hjU8-SRuWJ7MqtnoK7Vt-440" value="student_id INT" style="shape=partialRectangle;overflow=hidden;connectable=0;fillColor=none;align=left;strokeColor=inherit;top=0;left=0;bottom=0;right=0;spacingLeft=6;fontStyle=5;" vertex="1" parent="hjU8-SRuWJ7MqtnoK7Vt-438">
          <mxGeometry x="30" width="149.0272583007811" height="30" as="geometry">
            <mxRectangle width="149.0272583007811" height="30" as="alternateBounds" />
          </mxGeometry>
        </mxCell>
        <mxCell id="hjU8-SRuWJ7MqtnoK7Vt-441" value="" style="shape=tableRow;horizontal=0;startSize=0;swimlaneHead=0;swimlaneBody=0;fillColor=none;collapsible=0;dropTarget=0;points=[[0,0.5],[1,0.5]];portConstraint=eastwest;strokeColor=inherit;top=0;left=0;right=0;bottom=0;" vertex="1" parent="hjU8-SRuWJ7MqtnoK7Vt-434">
          <mxGeometry y="90" width="179.0272583007811" height="30" as="geometry" />
        </mxCell>
        <mxCell id="hjU8-SRuWJ7MqtnoK7Vt-442" value="" style="shape=partialRectangle;overflow=hidden;connectable=0;fillColor=none;strokeColor=inherit;top=0;left=0;bottom=0;right=0;" vertex="1" parent="hjU8-SRuWJ7MqtnoK7Vt-441">
          <mxGeometry width="30" height="30" as="geometry">
            <mxRectangle width="30" height="30" as="alternateBounds" />
          </mxGeometry>
        </mxCell>
        <mxCell id="hjU8-SRuWJ7MqtnoK7Vt-443" value="date_from DATE" style="shape=partialRectangle;overflow=hidden;connectable=0;fillColor=none;align=left;strokeColor=inherit;top=0;left=0;bottom=0;right=0;spacingLeft=6;" vertex="1" parent="hjU8-SRuWJ7MqtnoK7Vt-441">
          <mxGeometry x="30" width="149.0272583007811" height="30" as="geometry">
            <mxRectangle width="149.0272583007811" height="30" as="alternateBounds" />
          </mxGeometry>
        </mxCell>
        <mxCell id="hjU8-SRuWJ7MqtnoK7Vt-444" value="" style="shape=tableRow;horizontal=0;startSize=0;swimlaneHead=0;swimlaneBody=0;fillColor=none;collapsible=0;dropTarget=0;points=[[0,0.5],[1,0.5]];portConstraint=eastwest;strokeColor=inherit;top=0;left=0;right=0;bottom=0;" vertex="1" parent="hjU8-SRuWJ7MqtnoK7Vt-434">
          <mxGeometry y="120" width="179.0272583007811" height="30" as="geometry" />
        </mxCell>
        <mxCell id="hjU8-SRuWJ7MqtnoK7Vt-445" value="" style="shape=partialRectangle;overflow=hidden;connectable=0;fillColor=none;strokeColor=inherit;top=0;left=0;bottom=0;right=0;" vertex="1" parent="hjU8-SRuWJ7MqtnoK7Vt-444">
          <mxGeometry width="30" height="30" as="geometry">
            <mxRectangle width="30" height="30" as="alternateBounds" />
          </mxGeometry>
        </mxCell>
        <mxCell id="hjU8-SRuWJ7MqtnoK7Vt-446" value="date_to DATE" style="shape=partialRectangle;overflow=hidden;connectable=0;fillColor=none;align=left;strokeColor=inherit;top=0;left=0;bottom=0;right=0;spacingLeft=6;" vertex="1" parent="hjU8-SRuWJ7MqtnoK7Vt-444">
          <mxGeometry x="30" width="149.0272583007811" height="30" as="geometry">
            <mxRectangle width="149.0272583007811" height="30" as="alternateBounds" />
          </mxGeometry>
        </mxCell>
        <mxCell id="hjU8-SRuWJ7MqtnoK7Vt-453" value="Student_Classes" style="shape=table;startSize=30;container=1;collapsible=1;childLayout=tableLayout;fixedRows=1;rowLines=0;fontStyle=1;align=center;resizeLast=1;" vertex="1" parent="1">
          <mxGeometry x="955.0000000000001" y="650" width="185.4544090955012" height="150" as="geometry" />
        </mxCell>
        <mxCell id="hjU8-SRuWJ7MqtnoK7Vt-454" value="" style="shape=tableRow;horizontal=0;startSize=0;swimlaneHead=0;swimlaneBody=0;fillColor=none;collapsible=0;dropTarget=0;points=[[0,0.5],[1,0.5]];portConstraint=eastwest;strokeColor=inherit;top=0;left=0;right=0;bottom=1;" vertex="1" parent="hjU8-SRuWJ7MqtnoK7Vt-453">
          <mxGeometry y="30" width="185.4544090955012" height="30" as="geometry" />
        </mxCell>
        <mxCell id="hjU8-SRuWJ7MqtnoK7Vt-455" value="FK" style="shape=partialRectangle;overflow=hidden;connectable=0;fillColor=none;strokeColor=inherit;top=0;left=0;bottom=0;right=0;fontStyle=1;" vertex="1" parent="hjU8-SRuWJ7MqtnoK7Vt-454">
          <mxGeometry width="30" height="30" as="geometry">
            <mxRectangle width="30" height="30" as="alternateBounds" />
          </mxGeometry>
        </mxCell>
        <mxCell id="hjU8-SRuWJ7MqtnoK7Vt-456" value="class_id INT" style="shape=partialRectangle;overflow=hidden;connectable=0;fillColor=none;align=left;strokeColor=inherit;top=0;left=0;bottom=0;right=0;spacingLeft=6;fontStyle=5;" vertex="1" parent="hjU8-SRuWJ7MqtnoK7Vt-454">
          <mxGeometry x="30" width="155.4544090955012" height="30" as="geometry">
            <mxRectangle width="155.4544090955012" height="30" as="alternateBounds" />
          </mxGeometry>
        </mxCell>
        <mxCell id="hjU8-SRuWJ7MqtnoK7Vt-457" value="" style="shape=tableRow;horizontal=0;startSize=0;swimlaneHead=0;swimlaneBody=0;fillColor=none;collapsible=0;dropTarget=0;points=[[0,0.5],[1,0.5]];portConstraint=eastwest;strokeColor=inherit;top=0;left=0;right=0;bottom=1;" vertex="1" parent="hjU8-SRuWJ7MqtnoK7Vt-453">
          <mxGeometry y="60" width="185.4544090955012" height="30" as="geometry" />
        </mxCell>
        <mxCell id="hjU8-SRuWJ7MqtnoK7Vt-458" value="FK" style="shape=partialRectangle;overflow=hidden;connectable=0;fillColor=none;strokeColor=inherit;top=0;left=0;bottom=0;right=0;fontStyle=1;" vertex="1" parent="hjU8-SRuWJ7MqtnoK7Vt-457">
          <mxGeometry width="30" height="30" as="geometry">
            <mxRectangle width="30" height="30" as="alternateBounds" />
          </mxGeometry>
        </mxCell>
        <mxCell id="hjU8-SRuWJ7MqtnoK7Vt-459" value="student_id INT" style="shape=partialRectangle;overflow=hidden;connectable=0;fillColor=none;align=left;strokeColor=inherit;top=0;left=0;bottom=0;right=0;spacingLeft=6;fontStyle=5;" vertex="1" parent="hjU8-SRuWJ7MqtnoK7Vt-457">
          <mxGeometry x="30" width="155.4544090955012" height="30" as="geometry">
            <mxRectangle width="155.4544090955012" height="30" as="alternateBounds" />
          </mxGeometry>
        </mxCell>
        <mxCell id="hjU8-SRuWJ7MqtnoK7Vt-460" value="" style="shape=tableRow;horizontal=0;startSize=0;swimlaneHead=0;swimlaneBody=0;fillColor=none;collapsible=0;dropTarget=0;points=[[0,0.5],[1,0.5]];portConstraint=eastwest;strokeColor=inherit;top=0;left=0;right=0;bottom=0;" vertex="1" parent="hjU8-SRuWJ7MqtnoK7Vt-453">
          <mxGeometry y="90" width="185.4544090955012" height="30" as="geometry" />
        </mxCell>
        <mxCell id="hjU8-SRuWJ7MqtnoK7Vt-461" value="" style="shape=partialRectangle;overflow=hidden;connectable=0;fillColor=none;strokeColor=inherit;top=0;left=0;bottom=0;right=0;" vertex="1" parent="hjU8-SRuWJ7MqtnoK7Vt-460">
          <mxGeometry width="30" height="30" as="geometry">
            <mxRectangle width="30" height="30" as="alternateBounds" />
          </mxGeometry>
        </mxCell>
        <mxCell id="hjU8-SRuWJ7MqtnoK7Vt-462" value="date_from DATE" style="shape=partialRectangle;overflow=hidden;connectable=0;fillColor=none;align=left;strokeColor=inherit;top=0;left=0;bottom=0;right=0;spacingLeft=6;" vertex="1" parent="hjU8-SRuWJ7MqtnoK7Vt-460">
          <mxGeometry x="30" width="155.4544090955012" height="30" as="geometry">
            <mxRectangle width="155.4544090955012" height="30" as="alternateBounds" />
          </mxGeometry>
        </mxCell>
        <mxCell id="hjU8-SRuWJ7MqtnoK7Vt-463" value="" style="shape=tableRow;horizontal=0;startSize=0;swimlaneHead=0;swimlaneBody=0;fillColor=none;collapsible=0;dropTarget=0;points=[[0,0.5],[1,0.5]];portConstraint=eastwest;strokeColor=inherit;top=0;left=0;right=0;bottom=0;" vertex="1" parent="hjU8-SRuWJ7MqtnoK7Vt-453">
          <mxGeometry y="120" width="185.4544090955012" height="30" as="geometry" />
        </mxCell>
        <mxCell id="hjU8-SRuWJ7MqtnoK7Vt-464" value="" style="shape=partialRectangle;overflow=hidden;connectable=0;fillColor=none;strokeColor=inherit;top=0;left=0;bottom=0;right=0;" vertex="1" parent="hjU8-SRuWJ7MqtnoK7Vt-463">
          <mxGeometry width="30" height="30" as="geometry">
            <mxRectangle width="30" height="30" as="alternateBounds" />
          </mxGeometry>
        </mxCell>
        <mxCell id="hjU8-SRuWJ7MqtnoK7Vt-465" value="date_to DATE" style="shape=partialRectangle;overflow=hidden;connectable=0;fillColor=none;align=left;strokeColor=inherit;top=0;left=0;bottom=0;right=0;spacingLeft=6;" vertex="1" parent="hjU8-SRuWJ7MqtnoK7Vt-463">
          <mxGeometry x="30" width="155.4544090955012" height="30" as="geometry">
            <mxRectangle width="155.4544090955012" height="30" as="alternateBounds" />
          </mxGeometry>
        </mxCell>
        <mxCell id="hjU8-SRuWJ7MqtnoK7Vt-472" value="Family_Member" style="shape=table;startSize=30;container=1;collapsible=1;childLayout=tableLayout;fixedRows=1;rowLines=0;fontStyle=1;align=center;resizeLast=1;" vertex="1" parent="1">
          <mxGeometry x="173" y="618" width="254.21790182179416" height="180" as="geometry" />
        </mxCell>
        <mxCell id="hjU8-SRuWJ7MqtnoK7Vt-473" value="" style="shape=tableRow;horizontal=0;startSize=0;swimlaneHead=0;swimlaneBody=0;fillColor=none;collapsible=0;dropTarget=0;points=[[0,0.5],[1,0.5]];portConstraint=eastwest;strokeColor=inherit;top=0;left=0;right=0;bottom=1;" vertex="1" parent="hjU8-SRuWJ7MqtnoK7Vt-472">
          <mxGeometry y="30" width="254.21790182179416" height="30" as="geometry" />
        </mxCell>
        <mxCell id="hjU8-SRuWJ7MqtnoK7Vt-474" value="FK" style="shape=partialRectangle;overflow=hidden;connectable=0;fillColor=none;strokeColor=inherit;top=0;left=0;bottom=0;right=0;fontStyle=1;" vertex="1" parent="hjU8-SRuWJ7MqtnoK7Vt-473">
          <mxGeometry width="30" height="30" as="geometry">
            <mxRectangle width="30" height="30" as="alternateBounds" />
          </mxGeometry>
        </mxCell>
        <mxCell id="hjU8-SRuWJ7MqtnoK7Vt-475" value="student_id INT" style="shape=partialRectangle;overflow=hidden;connectable=0;fillColor=none;align=left;strokeColor=inherit;top=0;left=0;bottom=0;right=0;spacingLeft=6;fontStyle=5;" vertex="1" parent="hjU8-SRuWJ7MqtnoK7Vt-473">
          <mxGeometry x="30" width="224.21790182179416" height="30" as="geometry">
            <mxRectangle width="224.21790182179416" height="30" as="alternateBounds" />
          </mxGeometry>
        </mxCell>
        <mxCell id="hjU8-SRuWJ7MqtnoK7Vt-476" value="" style="shape=tableRow;horizontal=0;startSize=0;swimlaneHead=0;swimlaneBody=0;fillColor=none;collapsible=0;dropTarget=0;points=[[0,0.5],[1,0.5]];portConstraint=eastwest;strokeColor=inherit;top=0;left=0;right=0;bottom=1;" vertex="1" parent="hjU8-SRuWJ7MqtnoK7Vt-472">
          <mxGeometry y="60" width="254.21790182179416" height="30" as="geometry" />
        </mxCell>
        <mxCell id="hjU8-SRuWJ7MqtnoK7Vt-477" value="FK" style="shape=partialRectangle;overflow=hidden;connectable=0;fillColor=none;strokeColor=inherit;top=0;left=0;bottom=0;right=0;fontStyle=1;" vertex="1" parent="hjU8-SRuWJ7MqtnoK7Vt-476">
          <mxGeometry width="30" height="30" as="geometry">
            <mxRectangle width="30" height="30" as="alternateBounds" />
          </mxGeometry>
        </mxCell>
        <mxCell id="hjU8-SRuWJ7MqtnoK7Vt-478" value="family_id INT" style="shape=partialRectangle;overflow=hidden;connectable=0;fillColor=none;align=left;strokeColor=inherit;top=0;left=0;bottom=0;right=0;spacingLeft=6;fontStyle=5;" vertex="1" parent="hjU8-SRuWJ7MqtnoK7Vt-476">
          <mxGeometry x="30" width="224.21790182179416" height="30" as="geometry">
            <mxRectangle width="224.21790182179416" height="30" as="alternateBounds" />
          </mxGeometry>
        </mxCell>
        <mxCell id="hjU8-SRuWJ7MqtnoK7Vt-479" value="" style="shape=tableRow;horizontal=0;startSize=0;swimlaneHead=0;swimlaneBody=0;fillColor=none;collapsible=0;dropTarget=0;points=[[0,0.5],[1,0.5]];portConstraint=eastwest;strokeColor=inherit;top=0;left=0;right=0;bottom=1;" vertex="1" parent="hjU8-SRuWJ7MqtnoK7Vt-472">
          <mxGeometry y="90" width="254.21790182179416" height="30" as="geometry" />
        </mxCell>
        <mxCell id="hjU8-SRuWJ7MqtnoK7Vt-480" value="PK" style="shape=partialRectangle;overflow=hidden;connectable=0;fillColor=none;strokeColor=inherit;top=0;left=0;bottom=0;right=0;fontStyle=1;" vertex="1" parent="hjU8-SRuWJ7MqtnoK7Vt-479">
          <mxGeometry width="30" height="30" as="geometry">
            <mxRectangle width="30" height="30" as="alternateBounds" />
          </mxGeometry>
        </mxCell>
        <mxCell id="hjU8-SRuWJ7MqtnoK7Vt-481" value="family_member_id INT " style="shape=partialRectangle;overflow=hidden;connectable=0;fillColor=none;align=left;strokeColor=inherit;top=0;left=0;bottom=0;right=0;spacingLeft=6;fontStyle=5;" vertex="1" parent="hjU8-SRuWJ7MqtnoK7Vt-479">
          <mxGeometry x="30" width="224.21790182179416" height="30" as="geometry">
            <mxRectangle width="224.21790182179416" height="30" as="alternateBounds" />
          </mxGeometry>
        </mxCell>
        <mxCell id="hjU8-SRuWJ7MqtnoK7Vt-482" value="" style="shape=tableRow;horizontal=0;startSize=0;swimlaneHead=0;swimlaneBody=0;fillColor=none;collapsible=0;dropTarget=0;points=[[0,0.5],[1,0.5]];portConstraint=eastwest;strokeColor=inherit;top=0;left=0;right=0;bottom=0;" vertex="1" parent="hjU8-SRuWJ7MqtnoK7Vt-472">
          <mxGeometry y="120" width="254.21790182179416" height="30" as="geometry" />
        </mxCell>
        <mxCell id="hjU8-SRuWJ7MqtnoK7Vt-483" value="" style="shape=partialRectangle;overflow=hidden;connectable=0;fillColor=none;strokeColor=inherit;top=0;left=0;bottom=0;right=0;" vertex="1" parent="hjU8-SRuWJ7MqtnoK7Vt-482">
          <mxGeometry width="30" height="30" as="geometry">
            <mxRectangle width="30" height="30" as="alternateBounds" />
          </mxGeometry>
        </mxCell>
        <mxCell id="hjU8-SRuWJ7MqtnoK7Vt-484" value="parent_or_student_member VARCHAR" style="shape=partialRectangle;overflow=hidden;connectable=0;fillColor=none;align=left;strokeColor=inherit;top=0;left=0;bottom=0;right=0;spacingLeft=6;" vertex="1" parent="hjU8-SRuWJ7MqtnoK7Vt-482">
          <mxGeometry x="30" width="224.21790182179416" height="30" as="geometry">
            <mxRectangle width="224.21790182179416" height="30" as="alternateBounds" />
          </mxGeometry>
        </mxCell>
        <mxCell id="hjU8-SRuWJ7MqtnoK7Vt-485" value="" style="shape=tableRow;horizontal=0;startSize=0;swimlaneHead=0;swimlaneBody=0;fillColor=none;collapsible=0;dropTarget=0;points=[[0,0.5],[1,0.5]];portConstraint=eastwest;strokeColor=inherit;top=0;left=0;right=0;bottom=0;" vertex="1" parent="hjU8-SRuWJ7MqtnoK7Vt-472">
          <mxGeometry y="150" width="254.21790182179416" height="30" as="geometry" />
        </mxCell>
        <mxCell id="hjU8-SRuWJ7MqtnoK7Vt-486" value="" style="shape=partialRectangle;overflow=hidden;connectable=0;fillColor=none;strokeColor=inherit;top=0;left=0;bottom=0;right=0;" vertex="1" parent="hjU8-SRuWJ7MqtnoK7Vt-485">
          <mxGeometry width="30" height="30" as="geometry">
            <mxRectangle width="30" height="30" as="alternateBounds" />
          </mxGeometry>
        </mxCell>
        <mxCell id="hjU8-SRuWJ7MqtnoK7Vt-487" value="date_of_birth DATE" style="shape=partialRectangle;overflow=hidden;connectable=0;fillColor=none;align=left;strokeColor=inherit;top=0;left=0;bottom=0;right=0;spacingLeft=6;" vertex="1" parent="hjU8-SRuWJ7MqtnoK7Vt-485">
          <mxGeometry x="30" width="224.21790182179416" height="30" as="geometry">
            <mxRectangle width="224.21790182179416" height="30" as="alternateBounds" />
          </mxGeometry>
        </mxCell>
        <mxCell id="hjU8-SRuWJ7MqtnoK7Vt-494" value="Address" style="shape=table;startSize=30;container=1;collapsible=1;childLayout=tableLayout;fixedRows=1;rowLines=0;fontStyle=1;align=center;resizeLast=1;" vertex="1" parent="1">
          <mxGeometry x="28" y="25" width="197" height="90" as="geometry" />
        </mxCell>
        <mxCell id="hjU8-SRuWJ7MqtnoK7Vt-495" value="" style="shape=tableRow;horizontal=0;startSize=0;swimlaneHead=0;swimlaneBody=0;fillColor=none;collapsible=0;dropTarget=0;points=[[0,0.5],[1,0.5]];portConstraint=eastwest;strokeColor=inherit;top=0;left=0;right=0;bottom=1;" vertex="1" parent="hjU8-SRuWJ7MqtnoK7Vt-494">
          <mxGeometry y="30" width="197" height="30" as="geometry" />
        </mxCell>
        <mxCell id="hjU8-SRuWJ7MqtnoK7Vt-496" value="PK" style="shape=partialRectangle;overflow=hidden;connectable=0;fillColor=none;strokeColor=inherit;top=0;left=0;bottom=0;right=0;fontStyle=1;" vertex="1" parent="hjU8-SRuWJ7MqtnoK7Vt-495">
          <mxGeometry width="30" height="30" as="geometry">
            <mxRectangle width="30" height="30" as="alternateBounds" />
          </mxGeometry>
        </mxCell>
        <mxCell id="hjU8-SRuWJ7MqtnoK7Vt-497" value="address_id INT " style="shape=partialRectangle;overflow=hidden;connectable=0;fillColor=none;align=left;strokeColor=inherit;top=0;left=0;bottom=0;right=0;spacingLeft=6;fontStyle=5;" vertex="1" parent="hjU8-SRuWJ7MqtnoK7Vt-495">
          <mxGeometry x="30" width="167" height="30" as="geometry">
            <mxRectangle width="167" height="30" as="alternateBounds" />
          </mxGeometry>
        </mxCell>
        <mxCell id="hjU8-SRuWJ7MqtnoK7Vt-498" value="" style="shape=tableRow;horizontal=0;startSize=0;swimlaneHead=0;swimlaneBody=0;fillColor=none;collapsible=0;dropTarget=0;points=[[0,0.5],[1,0.5]];portConstraint=eastwest;strokeColor=inherit;top=0;left=0;right=0;bottom=0;" vertex="1" parent="hjU8-SRuWJ7MqtnoK7Vt-494">
          <mxGeometry y="60" width="197" height="30" as="geometry" />
        </mxCell>
        <mxCell id="hjU8-SRuWJ7MqtnoK7Vt-499" value="" style="shape=partialRectangle;overflow=hidden;connectable=0;fillColor=none;strokeColor=inherit;top=0;left=0;bottom=0;right=0;" vertex="1" parent="hjU8-SRuWJ7MqtnoK7Vt-498">
          <mxGeometry width="30" height="30" as="geometry">
            <mxRectangle width="30" height="30" as="alternateBounds" />
          </mxGeometry>
        </mxCell>
        <mxCell id="hjU8-SRuWJ7MqtnoK7Vt-500" value="address_details VARCHAR" style="shape=partialRectangle;overflow=hidden;connectable=0;fillColor=none;align=left;strokeColor=inherit;top=0;left=0;bottom=0;right=0;spacingLeft=6;" vertex="1" parent="hjU8-SRuWJ7MqtnoK7Vt-498">
          <mxGeometry x="30" width="167" height="30" as="geometry">
            <mxRectangle width="167" height="30" as="alternateBounds" />
          </mxGeometry>
        </mxCell>
        <mxCell id="hjU8-SRuWJ7MqtnoK7Vt-501" value="Reports" style="shape=table;startSize=30;container=1;collapsible=1;childLayout=tableLayout;fixedRows=1;rowLines=0;fontStyle=1;align=center;resizeLast=1;" vertex="1" parent="1">
          <mxGeometry x="823" y="827" width="320" height="210" as="geometry" />
        </mxCell>
        <mxCell id="hjU8-SRuWJ7MqtnoK7Vt-502" value="" style="shape=tableRow;horizontal=0;startSize=0;swimlaneHead=0;swimlaneBody=0;fillColor=none;collapsible=0;dropTarget=0;points=[[0,0.5],[1,0.5]];portConstraint=eastwest;strokeColor=inherit;top=0;left=0;right=0;bottom=1;" vertex="1" parent="hjU8-SRuWJ7MqtnoK7Vt-501">
          <mxGeometry y="30" width="320" height="30" as="geometry" />
        </mxCell>
        <mxCell id="hjU8-SRuWJ7MqtnoK7Vt-503" value="FK" style="shape=partialRectangle;overflow=hidden;connectable=0;fillColor=none;strokeColor=inherit;top=0;left=0;bottom=0;right=0;fontStyle=1;" vertex="1" parent="hjU8-SRuWJ7MqtnoK7Vt-502">
          <mxGeometry width="30" height="30" as="geometry">
            <mxRectangle width="30" height="30" as="alternateBounds" />
          </mxGeometry>
        </mxCell>
        <mxCell id="hjU8-SRuWJ7MqtnoK7Vt-504" value="student_id INT" style="shape=partialRectangle;overflow=hidden;connectable=0;fillColor=none;align=left;strokeColor=inherit;top=0;left=0;bottom=0;right=0;spacingLeft=6;fontStyle=5;" vertex="1" parent="hjU8-SRuWJ7MqtnoK7Vt-502">
          <mxGeometry x="30" width="290" height="30" as="geometry">
            <mxRectangle width="290" height="30" as="alternateBounds" />
          </mxGeometry>
        </mxCell>
        <mxCell id="hjU8-SRuWJ7MqtnoK7Vt-505" value="" style="shape=tableRow;horizontal=0;startSize=0;swimlaneHead=0;swimlaneBody=0;fillColor=none;collapsible=0;dropTarget=0;points=[[0,0.5],[1,0.5]];portConstraint=eastwest;strokeColor=inherit;top=0;left=0;right=0;bottom=1;" vertex="1" parent="hjU8-SRuWJ7MqtnoK7Vt-501">
          <mxGeometry y="60" width="320" height="30" as="geometry" />
        </mxCell>
        <mxCell id="hjU8-SRuWJ7MqtnoK7Vt-506" value="PK" style="shape=partialRectangle;overflow=hidden;connectable=0;fillColor=none;strokeColor=inherit;top=0;left=0;bottom=0;right=0;fontStyle=1;" vertex="1" parent="hjU8-SRuWJ7MqtnoK7Vt-505">
          <mxGeometry width="30" height="30" as="geometry">
            <mxRectangle width="30" height="30" as="alternateBounds" />
          </mxGeometry>
        </mxCell>
        <mxCell id="hjU8-SRuWJ7MqtnoK7Vt-507" value="report_id INT " style="shape=partialRectangle;overflow=hidden;connectable=0;fillColor=none;align=left;strokeColor=inherit;top=0;left=0;bottom=0;right=0;spacingLeft=6;fontStyle=5;" vertex="1" parent="hjU8-SRuWJ7MqtnoK7Vt-505">
          <mxGeometry x="30" width="290" height="30" as="geometry">
            <mxRectangle width="290" height="30" as="alternateBounds" />
          </mxGeometry>
        </mxCell>
        <mxCell id="hjU8-SRuWJ7MqtnoK7Vt-508" value="" style="shape=tableRow;horizontal=0;startSize=0;swimlaneHead=0;swimlaneBody=0;fillColor=none;collapsible=0;dropTarget=0;points=[[0,0.5],[1,0.5]];portConstraint=eastwest;strokeColor=inherit;top=0;left=0;right=0;bottom=0;" vertex="1" parent="hjU8-SRuWJ7MqtnoK7Vt-501">
          <mxGeometry y="90" width="320" height="30" as="geometry" />
        </mxCell>
        <mxCell id="hjU8-SRuWJ7MqtnoK7Vt-509" value="" style="shape=partialRectangle;overflow=hidden;connectable=0;fillColor=none;strokeColor=inherit;top=0;left=0;bottom=0;right=0;" vertex="1" parent="hjU8-SRuWJ7MqtnoK7Vt-508">
          <mxGeometry width="30" height="30" as="geometry">
            <mxRectangle width="30" height="30" as="alternateBounds" />
          </mxGeometry>
        </mxCell>
        <mxCell id="hjU8-SRuWJ7MqtnoK7Vt-510" value="date_created DATE" style="shape=partialRectangle;overflow=hidden;connectable=0;fillColor=none;align=left;strokeColor=inherit;top=0;left=0;bottom=0;right=0;spacingLeft=6;" vertex="1" parent="hjU8-SRuWJ7MqtnoK7Vt-508">
          <mxGeometry x="30" width="290" height="30" as="geometry">
            <mxRectangle width="290" height="30" as="alternateBounds" />
          </mxGeometry>
        </mxCell>
        <mxCell id="hjU8-SRuWJ7MqtnoK7Vt-511" value="" style="shape=tableRow;horizontal=0;startSize=0;swimlaneHead=0;swimlaneBody=0;fillColor=none;collapsible=0;dropTarget=0;points=[[0,0.5],[1,0.5]];portConstraint=eastwest;strokeColor=inherit;top=0;left=0;right=0;bottom=0;" vertex="1" parent="hjU8-SRuWJ7MqtnoK7Vt-501">
          <mxGeometry y="120" width="320" height="30" as="geometry" />
        </mxCell>
        <mxCell id="hjU8-SRuWJ7MqtnoK7Vt-512" value="" style="shape=partialRectangle;overflow=hidden;connectable=0;fillColor=none;strokeColor=inherit;top=0;left=0;bottom=0;right=0;" vertex="1" parent="hjU8-SRuWJ7MqtnoK7Vt-511">
          <mxGeometry width="30" height="30" as="geometry">
            <mxRectangle width="30" height="30" as="alternateBounds" />
          </mxGeometry>
        </mxCell>
        <mxCell id="hjU8-SRuWJ7MqtnoK7Vt-513" value="report_content VARCHAR" style="shape=partialRectangle;overflow=hidden;connectable=0;fillColor=none;align=left;strokeColor=inherit;top=0;left=0;bottom=0;right=0;spacingLeft=6;" vertex="1" parent="hjU8-SRuWJ7MqtnoK7Vt-511">
          <mxGeometry x="30" width="290" height="30" as="geometry">
            <mxRectangle width="290" height="30" as="alternateBounds" />
          </mxGeometry>
        </mxCell>
        <mxCell id="hjU8-SRuWJ7MqtnoK7Vt-514" value="" style="shape=tableRow;horizontal=0;startSize=0;swimlaneHead=0;swimlaneBody=0;fillColor=none;collapsible=0;dropTarget=0;points=[[0,0.5],[1,0.5]];portConstraint=eastwest;strokeColor=inherit;top=0;left=0;right=0;bottom=0;" vertex="1" parent="hjU8-SRuWJ7MqtnoK7Vt-501">
          <mxGeometry y="150" width="320" height="30" as="geometry" />
        </mxCell>
        <mxCell id="hjU8-SRuWJ7MqtnoK7Vt-515" value="" style="shape=partialRectangle;overflow=hidden;connectable=0;fillColor=none;strokeColor=inherit;top=0;left=0;bottom=0;right=0;" vertex="1" parent="hjU8-SRuWJ7MqtnoK7Vt-514">
          <mxGeometry width="30" height="30" as="geometry">
            <mxRectangle width="30" height="30" as="alternateBounds" />
          </mxGeometry>
        </mxCell>
        <mxCell id="hjU8-SRuWJ7MqtnoK7Vt-516" value="teachers_comments VARCHAR" style="shape=partialRectangle;overflow=hidden;connectable=0;fillColor=none;align=left;strokeColor=inherit;top=0;left=0;bottom=0;right=0;spacingLeft=6;" vertex="1" parent="hjU8-SRuWJ7MqtnoK7Vt-514">
          <mxGeometry x="30" width="290" height="30" as="geometry">
            <mxRectangle width="290" height="30" as="alternateBounds" />
          </mxGeometry>
        </mxCell>
        <mxCell id="hjU8-SRuWJ7MqtnoK7Vt-517" value="" style="shape=tableRow;horizontal=0;startSize=0;swimlaneHead=0;swimlaneBody=0;fillColor=none;collapsible=0;dropTarget=0;points=[[0,0.5],[1,0.5]];portConstraint=eastwest;strokeColor=inherit;top=0;left=0;right=0;bottom=0;" vertex="1" parent="hjU8-SRuWJ7MqtnoK7Vt-501">
          <mxGeometry y="180" width="320" height="30" as="geometry" />
        </mxCell>
        <mxCell id="hjU8-SRuWJ7MqtnoK7Vt-518" value="" style="shape=partialRectangle;overflow=hidden;connectable=0;fillColor=none;strokeColor=inherit;top=0;left=0;bottom=0;right=0;" vertex="1" parent="hjU8-SRuWJ7MqtnoK7Vt-517">
          <mxGeometry width="30" height="30" as="geometry">
            <mxRectangle width="30" height="30" as="alternateBounds" />
          </mxGeometry>
        </mxCell>
        <mxCell id="hjU8-SRuWJ7MqtnoK7Vt-519" value="other_report_details VARCHAR" style="shape=partialRectangle;overflow=hidden;connectable=0;fillColor=none;align=left;strokeColor=inherit;top=0;left=0;bottom=0;right=0;spacingLeft=6;" vertex="1" parent="hjU8-SRuWJ7MqtnoK7Vt-517">
          <mxGeometry x="30" width="290" height="30" as="geometry">
            <mxRectangle width="290" height="30" as="alternateBounds" />
          </mxGeometry>
        </mxCell>
        <mxCell id="hjU8-SRuWJ7MqtnoK7Vt-523" value="Homework" style="shape=table;startSize=30;container=1;collapsible=1;childLayout=tableLayout;fixedRows=1;rowLines=0;fontStyle=1;align=center;resizeLast=1;" vertex="1" parent="1">
          <mxGeometry x="524.26" y="851" width="235.7426789202009" height="210" as="geometry" />
        </mxCell>
        <mxCell id="hjU8-SRuWJ7MqtnoK7Vt-524" value="" style="shape=tableRow;horizontal=0;startSize=0;swimlaneHead=0;swimlaneBody=0;fillColor=none;collapsible=0;dropTarget=0;points=[[0,0.5],[1,0.5]];portConstraint=eastwest;strokeColor=inherit;top=0;left=0;right=0;bottom=1;" vertex="1" parent="hjU8-SRuWJ7MqtnoK7Vt-523">
          <mxGeometry y="30" width="235.7426789202009" height="30" as="geometry" />
        </mxCell>
        <mxCell id="hjU8-SRuWJ7MqtnoK7Vt-525" value="FK" style="shape=partialRectangle;overflow=hidden;connectable=0;fillColor=none;strokeColor=inherit;top=0;left=0;bottom=0;right=0;fontStyle=1;" vertex="1" parent="hjU8-SRuWJ7MqtnoK7Vt-524">
          <mxGeometry width="30" height="30" as="geometry">
            <mxRectangle width="30" height="30" as="alternateBounds" />
          </mxGeometry>
        </mxCell>
        <mxCell id="hjU8-SRuWJ7MqtnoK7Vt-526" value="student_id INT" style="shape=partialRectangle;overflow=hidden;connectable=0;fillColor=none;align=left;strokeColor=inherit;top=0;left=0;bottom=0;right=0;spacingLeft=6;fontStyle=5;" vertex="1" parent="hjU8-SRuWJ7MqtnoK7Vt-524">
          <mxGeometry x="30" width="205.7426789202009" height="30" as="geometry">
            <mxRectangle width="205.7426789202009" height="30" as="alternateBounds" />
          </mxGeometry>
        </mxCell>
        <mxCell id="hjU8-SRuWJ7MqtnoK7Vt-527" value="" style="shape=tableRow;horizontal=0;startSize=0;swimlaneHead=0;swimlaneBody=0;fillColor=none;collapsible=0;dropTarget=0;points=[[0,0.5],[1,0.5]];portConstraint=eastwest;strokeColor=inherit;top=0;left=0;right=0;bottom=1;" vertex="1" parent="hjU8-SRuWJ7MqtnoK7Vt-523">
          <mxGeometry y="60" width="235.7426789202009" height="30" as="geometry" />
        </mxCell>
        <mxCell id="hjU8-SRuWJ7MqtnoK7Vt-528" value="PK" style="shape=partialRectangle;overflow=hidden;connectable=0;fillColor=none;strokeColor=inherit;top=0;left=0;bottom=0;right=0;fontStyle=1;" vertex="1" parent="hjU8-SRuWJ7MqtnoK7Vt-527">
          <mxGeometry width="30" height="30" as="geometry">
            <mxRectangle width="30" height="30" as="alternateBounds" />
          </mxGeometry>
        </mxCell>
        <mxCell id="hjU8-SRuWJ7MqtnoK7Vt-529" value="homework_id INT " style="shape=partialRectangle;overflow=hidden;connectable=0;fillColor=none;align=left;strokeColor=inherit;top=0;left=0;bottom=0;right=0;spacingLeft=6;fontStyle=5;" vertex="1" parent="hjU8-SRuWJ7MqtnoK7Vt-527">
          <mxGeometry x="30" width="205.7426789202009" height="30" as="geometry">
            <mxRectangle width="205.7426789202009" height="30" as="alternateBounds" />
          </mxGeometry>
        </mxCell>
        <mxCell id="hjU8-SRuWJ7MqtnoK7Vt-530" value="" style="shape=tableRow;horizontal=0;startSize=0;swimlaneHead=0;swimlaneBody=0;fillColor=none;collapsible=0;dropTarget=0;points=[[0,0.5],[1,0.5]];portConstraint=eastwest;strokeColor=inherit;top=0;left=0;right=0;bottom=0;" vertex="1" parent="hjU8-SRuWJ7MqtnoK7Vt-523">
          <mxGeometry y="90" width="235.7426789202009" height="30" as="geometry" />
        </mxCell>
        <mxCell id="hjU8-SRuWJ7MqtnoK7Vt-531" value="" style="shape=partialRectangle;overflow=hidden;connectable=0;fillColor=none;strokeColor=inherit;top=0;left=0;bottom=0;right=0;" vertex="1" parent="hjU8-SRuWJ7MqtnoK7Vt-530">
          <mxGeometry width="30" height="30" as="geometry">
            <mxRectangle width="30" height="30" as="alternateBounds" />
          </mxGeometry>
        </mxCell>
        <mxCell id="hjU8-SRuWJ7MqtnoK7Vt-532" value="date_created DATE" style="shape=partialRectangle;overflow=hidden;connectable=0;fillColor=none;align=left;strokeColor=inherit;top=0;left=0;bottom=0;right=0;spacingLeft=6;" vertex="1" parent="hjU8-SRuWJ7MqtnoK7Vt-530">
          <mxGeometry x="30" width="205.7426789202009" height="30" as="geometry">
            <mxRectangle width="205.7426789202009" height="30" as="alternateBounds" />
          </mxGeometry>
        </mxCell>
        <mxCell id="hjU8-SRuWJ7MqtnoK7Vt-533" value="" style="shape=tableRow;horizontal=0;startSize=0;swimlaneHead=0;swimlaneBody=0;fillColor=none;collapsible=0;dropTarget=0;points=[[0,0.5],[1,0.5]];portConstraint=eastwest;strokeColor=inherit;top=0;left=0;right=0;bottom=0;" vertex="1" parent="hjU8-SRuWJ7MqtnoK7Vt-523">
          <mxGeometry y="120" width="235.7426789202009" height="30" as="geometry" />
        </mxCell>
        <mxCell id="hjU8-SRuWJ7MqtnoK7Vt-534" value="" style="shape=partialRectangle;overflow=hidden;connectable=0;fillColor=none;strokeColor=inherit;top=0;left=0;bottom=0;right=0;" vertex="1" parent="hjU8-SRuWJ7MqtnoK7Vt-533">
          <mxGeometry width="30" height="30" as="geometry">
            <mxRectangle width="30" height="30" as="alternateBounds" />
          </mxGeometry>
        </mxCell>
        <mxCell id="hjU8-SRuWJ7MqtnoK7Vt-535" value="homework_content VARCHAR" style="shape=partialRectangle;overflow=hidden;connectable=0;fillColor=none;align=left;strokeColor=inherit;top=0;left=0;bottom=0;right=0;spacingLeft=6;" vertex="1" parent="hjU8-SRuWJ7MqtnoK7Vt-533">
          <mxGeometry x="30" width="205.7426789202009" height="30" as="geometry">
            <mxRectangle width="205.7426789202009" height="30" as="alternateBounds" />
          </mxGeometry>
        </mxCell>
        <mxCell id="hjU8-SRuWJ7MqtnoK7Vt-536" value="" style="shape=tableRow;horizontal=0;startSize=0;swimlaneHead=0;swimlaneBody=0;fillColor=none;collapsible=0;dropTarget=0;points=[[0,0.5],[1,0.5]];portConstraint=eastwest;strokeColor=inherit;top=0;left=0;right=0;bottom=0;" vertex="1" parent="hjU8-SRuWJ7MqtnoK7Vt-523">
          <mxGeometry y="150" width="235.7426789202009" height="30" as="geometry" />
        </mxCell>
        <mxCell id="hjU8-SRuWJ7MqtnoK7Vt-537" value="" style="shape=partialRectangle;overflow=hidden;connectable=0;fillColor=none;strokeColor=inherit;top=0;left=0;bottom=0;right=0;" vertex="1" parent="hjU8-SRuWJ7MqtnoK7Vt-536">
          <mxGeometry width="30" height="30" as="geometry">
            <mxRectangle width="30" height="30" as="alternateBounds" />
          </mxGeometry>
        </mxCell>
        <mxCell id="hjU8-SRuWJ7MqtnoK7Vt-538" value="grade VARCHAR" style="shape=partialRectangle;overflow=hidden;connectable=0;fillColor=none;align=left;strokeColor=inherit;top=0;left=0;bottom=0;right=0;spacingLeft=6;" vertex="1" parent="hjU8-SRuWJ7MqtnoK7Vt-536">
          <mxGeometry x="30" width="205.7426789202009" height="30" as="geometry">
            <mxRectangle width="205.7426789202009" height="30" as="alternateBounds" />
          </mxGeometry>
        </mxCell>
        <mxCell id="hjU8-SRuWJ7MqtnoK7Vt-539" value="" style="shape=tableRow;horizontal=0;startSize=0;swimlaneHead=0;swimlaneBody=0;fillColor=none;collapsible=0;dropTarget=0;points=[[0,0.5],[1,0.5]];portConstraint=eastwest;strokeColor=inherit;top=0;left=0;right=0;bottom=0;" vertex="1" parent="hjU8-SRuWJ7MqtnoK7Vt-523">
          <mxGeometry y="180" width="235.7426789202009" height="30" as="geometry" />
        </mxCell>
        <mxCell id="hjU8-SRuWJ7MqtnoK7Vt-540" value="" style="shape=partialRectangle;overflow=hidden;connectable=0;fillColor=none;strokeColor=inherit;top=0;left=0;bottom=0;right=0;" vertex="1" parent="hjU8-SRuWJ7MqtnoK7Vt-539">
          <mxGeometry width="30" height="30" as="geometry">
            <mxRectangle width="30" height="30" as="alternateBounds" />
          </mxGeometry>
        </mxCell>
        <mxCell id="hjU8-SRuWJ7MqtnoK7Vt-541" value="other_homework_details VARCHAR" style="shape=partialRectangle;overflow=hidden;connectable=0;fillColor=none;align=left;strokeColor=inherit;top=0;left=0;bottom=0;right=0;spacingLeft=6;" vertex="1" parent="hjU8-SRuWJ7MqtnoK7Vt-539">
          <mxGeometry x="30" width="205.7426789202009" height="30" as="geometry">
            <mxRectangle width="205.7426789202009" height="30" as="alternateBounds" />
          </mxGeometry>
        </mxCell>
        <mxCell id="hjU8-SRuWJ7MqtnoK7Vt-545" value="Parent_Address" style="shape=table;startSize=30;container=1;collapsible=1;childLayout=tableLayout;fixedRows=1;rowLines=0;fontStyle=1;align=center;resizeLast=1;" vertex="1" parent="1">
          <mxGeometry x="28" y="170" width="207.5093383789065" height="152.18" as="geometry" />
        </mxCell>
        <mxCell id="hjU8-SRuWJ7MqtnoK7Vt-546" value="" style="shape=tableRow;horizontal=0;startSize=0;swimlaneHead=0;swimlaneBody=0;fillColor=none;collapsible=0;dropTarget=0;points=[[0,0.5],[1,0.5]];portConstraint=eastwest;strokeColor=inherit;top=0;left=0;right=0;bottom=1;" vertex="1" parent="hjU8-SRuWJ7MqtnoK7Vt-545">
          <mxGeometry y="30" width="207.5093383789065" height="30" as="geometry" />
        </mxCell>
        <mxCell id="hjU8-SRuWJ7MqtnoK7Vt-547" value="FK" style="shape=partialRectangle;overflow=hidden;connectable=0;fillColor=none;strokeColor=inherit;top=0;left=0;bottom=0;right=0;fontStyle=1;" vertex="1" parent="hjU8-SRuWJ7MqtnoK7Vt-546">
          <mxGeometry width="30" height="30" as="geometry">
            <mxRectangle width="30" height="30" as="alternateBounds" />
          </mxGeometry>
        </mxCell>
        <mxCell id="hjU8-SRuWJ7MqtnoK7Vt-548" value="address_id INT" style="shape=partialRectangle;overflow=hidden;connectable=0;fillColor=none;align=left;strokeColor=inherit;top=0;left=0;bottom=0;right=0;spacingLeft=6;fontStyle=5;" vertex="1" parent="hjU8-SRuWJ7MqtnoK7Vt-546">
          <mxGeometry x="30" width="177.5093383789065" height="30" as="geometry">
            <mxRectangle width="177.5093383789065" height="30" as="alternateBounds" />
          </mxGeometry>
        </mxCell>
        <mxCell id="hjU8-SRuWJ7MqtnoK7Vt-549" value="" style="shape=tableRow;horizontal=0;startSize=0;swimlaneHead=0;swimlaneBody=0;fillColor=none;collapsible=0;dropTarget=0;points=[[0,0.5],[1,0.5]];portConstraint=eastwest;strokeColor=inherit;top=0;left=0;right=0;bottom=1;" vertex="1" parent="hjU8-SRuWJ7MqtnoK7Vt-545">
          <mxGeometry y="60" width="207.5093383789065" height="30" as="geometry" />
        </mxCell>
        <mxCell id="hjU8-SRuWJ7MqtnoK7Vt-550" value="FK" style="shape=partialRectangle;overflow=hidden;connectable=0;fillColor=none;strokeColor=inherit;top=0;left=0;bottom=0;right=0;fontStyle=1;" vertex="1" parent="hjU8-SRuWJ7MqtnoK7Vt-549">
          <mxGeometry width="30" height="30" as="geometry">
            <mxRectangle width="30" height="30" as="alternateBounds" />
          </mxGeometry>
        </mxCell>
        <mxCell id="hjU8-SRuWJ7MqtnoK7Vt-551" value="parent_id INT" style="shape=partialRectangle;overflow=hidden;connectable=0;fillColor=none;align=left;strokeColor=inherit;top=0;left=0;bottom=0;right=0;spacingLeft=6;fontStyle=5;" vertex="1" parent="hjU8-SRuWJ7MqtnoK7Vt-549">
          <mxGeometry x="30" width="177.5093383789065" height="30" as="geometry">
            <mxRectangle width="177.5093383789065" height="30" as="alternateBounds" />
          </mxGeometry>
        </mxCell>
        <mxCell id="hjU8-SRuWJ7MqtnoK7Vt-552" value="" style="shape=tableRow;horizontal=0;startSize=0;swimlaneHead=0;swimlaneBody=0;fillColor=none;collapsible=0;dropTarget=0;points=[[0,0.5],[1,0.5]];portConstraint=eastwest;strokeColor=inherit;top=0;left=0;right=0;bottom=0;" vertex="1" parent="hjU8-SRuWJ7MqtnoK7Vt-545">
          <mxGeometry y="90" width="207.5093383789065" height="30" as="geometry" />
        </mxCell>
        <mxCell id="hjU8-SRuWJ7MqtnoK7Vt-553" value="" style="shape=partialRectangle;overflow=hidden;connectable=0;fillColor=none;strokeColor=inherit;top=0;left=0;bottom=0;right=0;" vertex="1" parent="hjU8-SRuWJ7MqtnoK7Vt-552">
          <mxGeometry width="30" height="30" as="geometry">
            <mxRectangle width="30" height="30" as="alternateBounds" />
          </mxGeometry>
        </mxCell>
        <mxCell id="hjU8-SRuWJ7MqtnoK7Vt-554" value="date_from DATE" style="shape=partialRectangle;overflow=hidden;connectable=0;fillColor=none;align=left;strokeColor=inherit;top=0;left=0;bottom=0;right=0;spacingLeft=6;" vertex="1" parent="hjU8-SRuWJ7MqtnoK7Vt-552">
          <mxGeometry x="30" width="177.5093383789065" height="30" as="geometry">
            <mxRectangle width="177.5093383789065" height="30" as="alternateBounds" />
          </mxGeometry>
        </mxCell>
        <mxCell id="hjU8-SRuWJ7MqtnoK7Vt-555" value="" style="shape=tableRow;horizontal=0;startSize=0;swimlaneHead=0;swimlaneBody=0;fillColor=none;collapsible=0;dropTarget=0;points=[[0,0.5],[1,0.5]];portConstraint=eastwest;strokeColor=inherit;top=0;left=0;right=0;bottom=0;" vertex="1" parent="hjU8-SRuWJ7MqtnoK7Vt-545">
          <mxGeometry y="120" width="207.5093383789065" height="30" as="geometry" />
        </mxCell>
        <mxCell id="hjU8-SRuWJ7MqtnoK7Vt-556" value="" style="shape=partialRectangle;overflow=hidden;connectable=0;fillColor=none;strokeColor=inherit;top=0;left=0;bottom=0;right=0;" vertex="1" parent="hjU8-SRuWJ7MqtnoK7Vt-555">
          <mxGeometry width="30" height="30" as="geometry">
            <mxRectangle width="30" height="30" as="alternateBounds" />
          </mxGeometry>
        </mxCell>
        <mxCell id="hjU8-SRuWJ7MqtnoK7Vt-557" value="date_to DATE" style="shape=partialRectangle;overflow=hidden;connectable=0;fillColor=none;align=left;strokeColor=inherit;top=0;left=0;bottom=0;right=0;spacingLeft=6;" vertex="1" parent="hjU8-SRuWJ7MqtnoK7Vt-555">
          <mxGeometry x="30" width="177.5093383789065" height="30" as="geometry">
            <mxRectangle width="177.5093383789065" height="30" as="alternateBounds" />
          </mxGeometry>
        </mxCell>
        <mxCell id="hjU8-SRuWJ7MqtnoK7Vt-570" style="edgeStyle=orthogonalEdgeStyle;rounded=0;orthogonalLoop=1;jettySize=auto;html=1;exitX=0;exitY=0.5;exitDx=0;exitDy=0;entryX=0;entryY=0.5;entryDx=0;entryDy=0;strokeColor=#23445D;" edge="1" parent="1" source="hjU8-SRuWJ7MqtnoK7Vt-549" target="hjU8-SRuWJ7MqtnoK7Vt-332">
          <mxGeometry relative="1" as="geometry" />
        </mxCell>
        <mxCell id="hjU8-SRuWJ7MqtnoK7Vt-571" style="edgeStyle=orthogonalEdgeStyle;rounded=0;orthogonalLoop=1;jettySize=auto;html=1;exitX=0;exitY=0.5;exitDx=0;exitDy=0;entryX=0;entryY=0.5;entryDx=0;entryDy=0;strokeColor=#23445D;" edge="1" parent="1" source="hjU8-SRuWJ7MqtnoK7Vt-546" target="hjU8-SRuWJ7MqtnoK7Vt-495">
          <mxGeometry relative="1" as="geometry" />
        </mxCell>
        <mxCell id="hjU8-SRuWJ7MqtnoK7Vt-580" style="edgeStyle=orthogonalEdgeStyle;rounded=0;orthogonalLoop=1;jettySize=auto;html=1;exitX=1;exitY=0.5;exitDx=0;exitDy=0;entryX=0;entryY=0.5;entryDx=0;entryDy=0;strokeColor=#23445D;" edge="1" parent="1" source="hjU8-SRuWJ7MqtnoK7Vt-495" target="hjU8-SRuWJ7MqtnoK7Vt-435">
          <mxGeometry relative="1" as="geometry" />
        </mxCell>
        <mxCell id="hjU8-SRuWJ7MqtnoK7Vt-581" style="edgeStyle=orthogonalEdgeStyle;rounded=0;orthogonalLoop=1;jettySize=auto;html=1;exitX=1;exitY=0.5;exitDx=0;exitDy=0;entryX=0;entryY=0.5;entryDx=0;entryDy=0;strokeColor=#23445D;" edge="1" parent="1" source="hjU8-SRuWJ7MqtnoK7Vt-549" target="hjU8-SRuWJ7MqtnoK7Vt-416">
          <mxGeometry relative="1" as="geometry" />
        </mxCell>
        <mxCell id="hjU8-SRuWJ7MqtnoK7Vt-582" style="edgeStyle=orthogonalEdgeStyle;rounded=0;orthogonalLoop=1;jettySize=auto;html=1;exitX=1;exitY=0.5;exitDx=0;exitDy=0;entryX=-0.003;entryY=0.18;entryDx=0;entryDy=0;entryPerimeter=0;strokeColor=#23445D;" edge="1" parent="1" source="hjU8-SRuWJ7MqtnoK7Vt-438" target="hjU8-SRuWJ7MqtnoK7Vt-310">
          <mxGeometry relative="1" as="geometry" />
        </mxCell>
        <mxCell id="hjU8-SRuWJ7MqtnoK7Vt-583" style="edgeStyle=orthogonalEdgeStyle;rounded=0;orthogonalLoop=1;jettySize=auto;html=1;exitX=1;exitY=0.5;exitDx=0;exitDy=0;entryX=0;entryY=0.5;entryDx=0;entryDy=0;strokeColor=#23445D;" edge="1" parent="1" source="hjU8-SRuWJ7MqtnoK7Vt-419" target="hjU8-SRuWJ7MqtnoK7Vt-310">
          <mxGeometry relative="1" as="geometry" />
        </mxCell>
        <mxCell id="hjU8-SRuWJ7MqtnoK7Vt-623" style="edgeStyle=orthogonalEdgeStyle;rounded=0;orthogonalLoop=1;jettySize=auto;html=1;exitX=0;exitY=0.5;exitDx=0;exitDy=0;entryX=1.004;entryY=0.151;entryDx=0;entryDy=0;entryPerimeter=0;strokeColor=#23445D;" edge="1" parent="1" source="hjU8-SRuWJ7MqtnoK7Vt-608" target="hjU8-SRuWJ7MqtnoK7Vt-495">
          <mxGeometry relative="1" as="geometry">
            <Array as="points">
              <mxPoint x="487" y="163" />
              <mxPoint x="487" y="59" />
            </Array>
          </mxGeometry>
        </mxCell>
        <mxCell id="hjU8-SRuWJ7MqtnoK7Vt-637" style="edgeStyle=orthogonalEdgeStyle;rounded=0;orthogonalLoop=1;jettySize=auto;html=1;exitX=1;exitY=0.5;exitDx=0;exitDy=0;entryX=1;entryY=0.5;entryDx=0;entryDy=0;strokeColor=#23445D;" edge="1" parent="1" source="hjU8-SRuWJ7MqtnoK7Vt-631" target="hjU8-SRuWJ7MqtnoK7Vt-396">
          <mxGeometry relative="1" as="geometry" />
        </mxCell>
        <mxCell id="hjU8-SRuWJ7MqtnoK7Vt-638" value="Course" style="shape=table;startSize=30;container=1;collapsible=1;childLayout=tableLayout;fixedRows=1;rowLines=0;fontStyle=1;align=center;resizeLast=1;" vertex="1" parent="1">
          <mxGeometry x="942.63" y="275" width="188" height="120" as="geometry" />
        </mxCell>
        <mxCell id="hjU8-SRuWJ7MqtnoK7Vt-639" value="" style="shape=tableRow;horizontal=0;startSize=0;swimlaneHead=0;swimlaneBody=0;fillColor=none;collapsible=0;dropTarget=0;points=[[0,0.5],[1,0.5]];portConstraint=eastwest;strokeColor=inherit;top=0;left=0;right=0;bottom=1;" vertex="1" parent="hjU8-SRuWJ7MqtnoK7Vt-638">
          <mxGeometry y="30" width="188" height="30" as="geometry" />
        </mxCell>
        <mxCell id="hjU8-SRuWJ7MqtnoK7Vt-640" value="PK" style="shape=partialRectangle;overflow=hidden;connectable=0;fillColor=none;strokeColor=inherit;top=0;left=0;bottom=0;right=0;fontStyle=1;" vertex="1" parent="hjU8-SRuWJ7MqtnoK7Vt-639">
          <mxGeometry width="30" height="30" as="geometry">
            <mxRectangle width="30" height="30" as="alternateBounds" />
          </mxGeometry>
        </mxCell>
        <mxCell id="hjU8-SRuWJ7MqtnoK7Vt-641" value="course_id INT " style="shape=partialRectangle;overflow=hidden;connectable=0;fillColor=none;align=left;strokeColor=inherit;top=0;left=0;bottom=0;right=0;spacingLeft=6;fontStyle=5;" vertex="1" parent="hjU8-SRuWJ7MqtnoK7Vt-639">
          <mxGeometry x="30" width="158" height="30" as="geometry">
            <mxRectangle width="158" height="30" as="alternateBounds" />
          </mxGeometry>
        </mxCell>
        <mxCell id="hjU8-SRuWJ7MqtnoK7Vt-642" value="" style="shape=tableRow;horizontal=0;startSize=0;swimlaneHead=0;swimlaneBody=0;fillColor=none;collapsible=0;dropTarget=0;points=[[0,0.5],[1,0.5]];portConstraint=eastwest;strokeColor=inherit;top=0;left=0;right=0;bottom=0;" vertex="1" parent="hjU8-SRuWJ7MqtnoK7Vt-638">
          <mxGeometry y="60" width="188" height="30" as="geometry" />
        </mxCell>
        <mxCell id="hjU8-SRuWJ7MqtnoK7Vt-643" value="" style="shape=partialRectangle;overflow=hidden;connectable=0;fillColor=none;strokeColor=inherit;top=0;left=0;bottom=0;right=0;" vertex="1" parent="hjU8-SRuWJ7MqtnoK7Vt-642">
          <mxGeometry width="30" height="30" as="geometry">
            <mxRectangle width="30" height="30" as="alternateBounds" />
          </mxGeometry>
        </mxCell>
        <mxCell id="hjU8-SRuWJ7MqtnoK7Vt-644" value="course_name VARCHAR" style="shape=partialRectangle;overflow=hidden;connectable=0;fillColor=none;align=left;strokeColor=inherit;top=0;left=0;bottom=0;right=0;spacingLeft=6;" vertex="1" parent="hjU8-SRuWJ7MqtnoK7Vt-642">
          <mxGeometry x="30" width="158" height="30" as="geometry">
            <mxRectangle width="158" height="30" as="alternateBounds" />
          </mxGeometry>
        </mxCell>
        <mxCell id="hjU8-SRuWJ7MqtnoK7Vt-645" value="" style="shape=tableRow;horizontal=0;startSize=0;swimlaneHead=0;swimlaneBody=0;fillColor=none;collapsible=0;dropTarget=0;points=[[0,0.5],[1,0.5]];portConstraint=eastwest;strokeColor=inherit;top=0;left=0;right=0;bottom=0;" vertex="1" parent="hjU8-SRuWJ7MqtnoK7Vt-638">
          <mxGeometry y="90" width="188" height="30" as="geometry" />
        </mxCell>
        <mxCell id="hjU8-SRuWJ7MqtnoK7Vt-646" value="" style="shape=partialRectangle;overflow=hidden;connectable=0;fillColor=none;strokeColor=inherit;top=0;left=0;bottom=0;right=0;" vertex="1" parent="hjU8-SRuWJ7MqtnoK7Vt-645">
          <mxGeometry width="30" height="30" as="geometry">
            <mxRectangle width="30" height="30" as="alternateBounds" />
          </mxGeometry>
        </mxCell>
        <mxCell id="hjU8-SRuWJ7MqtnoK7Vt-647" value="course_code VARCHAR" style="shape=partialRectangle;overflow=hidden;connectable=0;fillColor=none;align=left;strokeColor=inherit;top=0;left=0;bottom=0;right=0;spacingLeft=6;" vertex="1" parent="hjU8-SRuWJ7MqtnoK7Vt-645">
          <mxGeometry x="30" width="158" height="30" as="geometry">
            <mxRectangle width="158" height="30" as="alternateBounds" />
          </mxGeometry>
        </mxCell>
        <mxCell id="hjU8-SRuWJ7MqtnoK7Vt-651" style="edgeStyle=orthogonalEdgeStyle;rounded=0;orthogonalLoop=1;jettySize=auto;html=1;exitX=0;exitY=0.5;exitDx=0;exitDy=0;entryX=0;entryY=0.5;entryDx=0;entryDy=0;strokeColor=#23445D;" edge="1" parent="1" source="hjU8-SRuWJ7MqtnoK7Vt-648" target="hjU8-SRuWJ7MqtnoK7Vt-639">
          <mxGeometry relative="1" as="geometry" />
        </mxCell>
        <mxCell id="hjU8-SRuWJ7MqtnoK7Vt-654" style="edgeStyle=orthogonalEdgeStyle;rounded=0;orthogonalLoop=1;jettySize=auto;html=1;exitX=1;exitY=0.5;exitDx=0;exitDy=0;entryX=1;entryY=0.5;entryDx=0;entryDy=0;strokeColor=#23445D;" edge="1" parent="1" source="hjU8-SRuWJ7MqtnoK7Vt-454" target="hjU8-SRuWJ7MqtnoK7Vt-386">
          <mxGeometry relative="1" as="geometry" />
        </mxCell>
        <mxCell id="hjU8-SRuWJ7MqtnoK7Vt-655" style="edgeStyle=orthogonalEdgeStyle;rounded=0;orthogonalLoop=1;jettySize=auto;html=1;exitX=0;exitY=0.5;exitDx=0;exitDy=0;entryX=1;entryY=0.5;entryDx=0;entryDy=0;strokeColor=#23445D;" edge="1" parent="1" source="hjU8-SRuWJ7MqtnoK7Vt-457" target="hjU8-SRuWJ7MqtnoK7Vt-310">
          <mxGeometry relative="1" as="geometry" />
        </mxCell>
        <mxCell id="hjU8-SRuWJ7MqtnoK7Vt-656" style="edgeStyle=orthogonalEdgeStyle;rounded=0;orthogonalLoop=1;jettySize=auto;html=1;exitX=0;exitY=0.5;exitDx=0;exitDy=0;entryX=1.001;entryY=0.739;entryDx=0;entryDy=0;entryPerimeter=0;strokeColor=#23445D;" edge="1" parent="1" source="hjU8-SRuWJ7MqtnoK7Vt-502" target="hjU8-SRuWJ7MqtnoK7Vt-310">
          <mxGeometry relative="1" as="geometry" />
        </mxCell>
        <mxCell id="hjU8-SRuWJ7MqtnoK7Vt-657" style="edgeStyle=orthogonalEdgeStyle;rounded=0;orthogonalLoop=1;jettySize=auto;html=1;exitX=0;exitY=0.5;exitDx=0;exitDy=0;entryX=-0.001;entryY=0.895;entryDx=0;entryDy=0;entryPerimeter=0;strokeColor=#23445D;" edge="1" parent="1" source="hjU8-SRuWJ7MqtnoK7Vt-524" target="hjU8-SRuWJ7MqtnoK7Vt-310">
          <mxGeometry relative="1" as="geometry" />
        </mxCell>
        <mxCell id="hjU8-SRuWJ7MqtnoK7Vt-664" style="edgeStyle=orthogonalEdgeStyle;rounded=0;orthogonalLoop=1;jettySize=auto;html=1;exitX=0;exitY=0.5;exitDx=0;exitDy=0;entryX=0;entryY=0.728;entryDx=0;entryDy=0;entryPerimeter=0;strokeColor=#23445D;" edge="1" parent="1" source="hjU8-SRuWJ7MqtnoK7Vt-658" target="hjU8-SRuWJ7MqtnoK7Vt-332">
          <mxGeometry relative="1" as="geometry" />
        </mxCell>
        <mxCell id="hjU8-SRuWJ7MqtnoK7Vt-665" style="edgeStyle=orthogonalEdgeStyle;rounded=0;orthogonalLoop=1;jettySize=auto;html=1;exitX=0;exitY=0.5;exitDx=0;exitDy=0;strokeColor=#23445D;" edge="1" parent="1" source="hjU8-SRuWJ7MqtnoK7Vt-476" target="hjU8-SRuWJ7MqtnoK7Vt-403">
          <mxGeometry relative="1" as="geometry">
            <Array as="points">
              <mxPoint x="153" y="693" />
              <mxPoint x="153" y="812" />
              <mxPoint x="255" y="812" />
              <mxPoint x="255" y="882" />
            </Array>
          </mxGeometry>
        </mxCell>
        <mxCell id="hjU8-SRuWJ7MqtnoK7Vt-666" style="edgeStyle=orthogonalEdgeStyle;rounded=0;orthogonalLoop=1;jettySize=auto;html=1;exitX=1;exitY=0.5;exitDx=0;exitDy=0;entryX=-0.004;entryY=0.718;entryDx=0;entryDy=0;entryPerimeter=0;strokeColor=#23445D;" edge="1" parent="1" source="hjU8-SRuWJ7MqtnoK7Vt-473" target="hjU8-SRuWJ7MqtnoK7Vt-310">
          <mxGeometry relative="1" as="geometry" />
        </mxCell>
        <mxCell id="hjU8-SRuWJ7MqtnoK7Vt-667" value="&lt;font style=&quot;font-size: 24px;&quot;&gt;University System Entity Relationship Diagram&lt;/font&gt;" style="html=1;whiteSpace=wrap;fillColor=#f5f5f5;fontColor=#333333;strokeColor=#666666;" vertex="1" parent="1">
          <mxGeometry x="323" y="1090" width="523" height="52" as="geometry" />
        </mxCell>
        <mxCell id="hjU8-SRuWJ7MqtnoK7Vt-668" style="edgeStyle=orthogonalEdgeStyle;rounded=0;orthogonalLoop=1;jettySize=auto;html=1;exitX=0;exitY=0.5;exitDx=0;exitDy=0;entryX=1;entryY=0.5;entryDx=0;entryDy=0;" edge="1" parent="1" source="hjU8-SRuWJ7MqtnoK7Vt-634" target="hjU8-SRuWJ7MqtnoK7Vt-354">
          <mxGeometry relative="1" as="geometry" />
        </mxCell>
        <mxCell id="hjU8-SRuWJ7MqtnoK7Vt-676" value="Department" style="shape=table;startSize=30;container=1;collapsible=1;childLayout=tableLayout;fixedRows=1;rowLines=0;fontStyle=1;align=center;resizeLast=1;" vertex="1" parent="1">
          <mxGeometry x="970" y="14" width="160.11029052734375" height="120" as="geometry" />
        </mxCell>
        <mxCell id="hjU8-SRuWJ7MqtnoK7Vt-677" value="" style="shape=tableRow;horizontal=0;startSize=0;swimlaneHead=0;swimlaneBody=0;fillColor=none;collapsible=0;dropTarget=0;points=[[0,0.5],[1,0.5]];portConstraint=eastwest;strokeColor=inherit;top=0;left=0;right=0;bottom=1;" vertex="1" parent="hjU8-SRuWJ7MqtnoK7Vt-676">
          <mxGeometry y="30" width="160.11029052734375" height="30" as="geometry" />
        </mxCell>
        <mxCell id="hjU8-SRuWJ7MqtnoK7Vt-678" value="PK" style="shape=partialRectangle;overflow=hidden;connectable=0;fillColor=none;strokeColor=inherit;top=0;left=0;bottom=0;right=0;fontStyle=1;" vertex="1" parent="hjU8-SRuWJ7MqtnoK7Vt-677">
          <mxGeometry width="30" height="30" as="geometry">
            <mxRectangle width="30" height="30" as="alternateBounds" />
          </mxGeometry>
        </mxCell>
        <mxCell id="hjU8-SRuWJ7MqtnoK7Vt-679" value="department_id INT " style="shape=partialRectangle;overflow=hidden;connectable=0;fillColor=none;align=left;strokeColor=inherit;top=0;left=0;bottom=0;right=0;spacingLeft=6;fontStyle=5;" vertex="1" parent="hjU8-SRuWJ7MqtnoK7Vt-677">
          <mxGeometry x="30" width="130.11029052734375" height="30" as="geometry">
            <mxRectangle width="130.11029052734375" height="30" as="alternateBounds" />
          </mxGeometry>
        </mxCell>
        <mxCell id="hjU8-SRuWJ7MqtnoK7Vt-686" value="" style="shape=tableRow;horizontal=0;startSize=0;swimlaneHead=0;swimlaneBody=0;fillColor=none;collapsible=0;dropTarget=0;points=[[0,0.5],[1,0.5]];portConstraint=eastwest;strokeColor=inherit;top=0;left=0;right=0;bottom=1;" vertex="1" parent="hjU8-SRuWJ7MqtnoK7Vt-676">
          <mxGeometry y="60" width="160.11029052734375" height="30" as="geometry" />
        </mxCell>
        <mxCell id="hjU8-SRuWJ7MqtnoK7Vt-687" value="FK" style="shape=partialRectangle;overflow=hidden;connectable=0;fillColor=none;strokeColor=inherit;top=0;left=0;bottom=0;right=0;fontStyle=1;" vertex="1" parent="hjU8-SRuWJ7MqtnoK7Vt-686">
          <mxGeometry width="30" height="30" as="geometry">
            <mxRectangle width="30" height="30" as="alternateBounds" />
          </mxGeometry>
        </mxCell>
        <mxCell id="hjU8-SRuWJ7MqtnoK7Vt-688" value="faculty_id INT " style="shape=partialRectangle;overflow=hidden;connectable=0;fillColor=none;align=left;strokeColor=inherit;top=0;left=0;bottom=0;right=0;spacingLeft=6;fontStyle=5;" vertex="1" parent="hjU8-SRuWJ7MqtnoK7Vt-686">
          <mxGeometry x="30" width="130.11029052734375" height="30" as="geometry">
            <mxRectangle width="130.11029052734375" height="30" as="alternateBounds" />
          </mxGeometry>
        </mxCell>
        <mxCell id="hjU8-SRuWJ7MqtnoK7Vt-680" value="" style="shape=tableRow;horizontal=0;startSize=0;swimlaneHead=0;swimlaneBody=0;fillColor=none;collapsible=0;dropTarget=0;points=[[0,0.5],[1,0.5]];portConstraint=eastwest;strokeColor=inherit;top=0;left=0;right=0;bottom=0;" vertex="1" parent="hjU8-SRuWJ7MqtnoK7Vt-676">
          <mxGeometry y="90" width="160.11029052734375" height="30" as="geometry" />
        </mxCell>
        <mxCell id="hjU8-SRuWJ7MqtnoK7Vt-681" value="" style="shape=partialRectangle;overflow=hidden;connectable=0;fillColor=none;strokeColor=inherit;top=0;left=0;bottom=0;right=0;" vertex="1" parent="hjU8-SRuWJ7MqtnoK7Vt-680">
          <mxGeometry width="30" height="30" as="geometry">
            <mxRectangle width="30" height="30" as="alternateBounds" />
          </mxGeometry>
        </mxCell>
        <mxCell id="hjU8-SRuWJ7MqtnoK7Vt-682" value="name VARCHAR" style="shape=partialRectangle;overflow=hidden;connectable=0;fillColor=none;align=left;strokeColor=inherit;top=0;left=0;bottom=0;right=0;spacingLeft=6;" vertex="1" parent="hjU8-SRuWJ7MqtnoK7Vt-680">
          <mxGeometry x="30" width="130.11029052734375" height="30" as="geometry">
            <mxRectangle width="130.11029052734375" height="30" as="alternateBounds" />
          </mxGeometry>
        </mxCell>
        <mxCell id="hjU8-SRuWJ7MqtnoK7Vt-669" value="Faculty" style="shape=table;startSize=30;container=1;collapsible=1;childLayout=tableLayout;fixedRows=1;rowLines=0;fontStyle=1;align=center;resizeLast=1;" vertex="1" parent="1">
          <mxGeometry x="800" y="14" width="134.81160191127242" height="120" as="geometry" />
        </mxCell>
        <mxCell id="hjU8-SRuWJ7MqtnoK7Vt-670" value="" style="shape=tableRow;horizontal=0;startSize=0;swimlaneHead=0;swimlaneBody=0;fillColor=none;collapsible=0;dropTarget=0;points=[[0,0.5],[1,0.5]];portConstraint=eastwest;strokeColor=inherit;top=0;left=0;right=0;bottom=1;" vertex="1" parent="hjU8-SRuWJ7MqtnoK7Vt-669">
          <mxGeometry y="30" width="134.81160191127242" height="30" as="geometry" />
        </mxCell>
        <mxCell id="hjU8-SRuWJ7MqtnoK7Vt-671" value="PK" style="shape=partialRectangle;overflow=hidden;connectable=0;fillColor=none;strokeColor=inherit;top=0;left=0;bottom=0;right=0;fontStyle=1;" vertex="1" parent="hjU8-SRuWJ7MqtnoK7Vt-670">
          <mxGeometry width="30" height="30" as="geometry">
            <mxRectangle width="30" height="30" as="alternateBounds" />
          </mxGeometry>
        </mxCell>
        <mxCell id="hjU8-SRuWJ7MqtnoK7Vt-672" value="faculty_id INT " style="shape=partialRectangle;overflow=hidden;connectable=0;fillColor=none;align=left;strokeColor=inherit;top=0;left=0;bottom=0;right=0;spacingLeft=6;fontStyle=5;" vertex="1" parent="hjU8-SRuWJ7MqtnoK7Vt-670">
          <mxGeometry x="30" width="104.81160191127242" height="30" as="geometry">
            <mxRectangle width="104.81160191127242" height="30" as="alternateBounds" />
          </mxGeometry>
        </mxCell>
        <mxCell id="hjU8-SRuWJ7MqtnoK7Vt-683" value="" style="shape=tableRow;horizontal=0;startSize=0;swimlaneHead=0;swimlaneBody=0;fillColor=none;collapsible=0;dropTarget=0;points=[[0,0.5],[1,0.5]];portConstraint=eastwest;strokeColor=inherit;top=0;left=0;right=0;bottom=1;" vertex="1" parent="hjU8-SRuWJ7MqtnoK7Vt-669">
          <mxGeometry y="60" width="134.81160191127242" height="30" as="geometry" />
        </mxCell>
        <mxCell id="hjU8-SRuWJ7MqtnoK7Vt-684" value="FK" style="shape=partialRectangle;overflow=hidden;connectable=0;fillColor=none;strokeColor=inherit;top=0;left=0;bottom=0;right=0;fontStyle=1;" vertex="1" parent="hjU8-SRuWJ7MqtnoK7Vt-683">
          <mxGeometry width="30" height="30" as="geometry">
            <mxRectangle width="30" height="30" as="alternateBounds" />
          </mxGeometry>
        </mxCell>
        <mxCell id="hjU8-SRuWJ7MqtnoK7Vt-685" value="institute_id INT " style="shape=partialRectangle;overflow=hidden;connectable=0;fillColor=none;align=left;strokeColor=inherit;top=0;left=0;bottom=0;right=0;spacingLeft=6;fontStyle=5;" vertex="1" parent="hjU8-SRuWJ7MqtnoK7Vt-683">
          <mxGeometry x="30" width="104.81160191127242" height="30" as="geometry">
            <mxRectangle width="104.81160191127242" height="30" as="alternateBounds" />
          </mxGeometry>
        </mxCell>
        <mxCell id="hjU8-SRuWJ7MqtnoK7Vt-673" value="" style="shape=tableRow;horizontal=0;startSize=0;swimlaneHead=0;swimlaneBody=0;fillColor=none;collapsible=0;dropTarget=0;points=[[0,0.5],[1,0.5]];portConstraint=eastwest;strokeColor=inherit;top=0;left=0;right=0;bottom=0;" vertex="1" parent="hjU8-SRuWJ7MqtnoK7Vt-669">
          <mxGeometry y="90" width="134.81160191127242" height="30" as="geometry" />
        </mxCell>
        <mxCell id="hjU8-SRuWJ7MqtnoK7Vt-674" value="" style="shape=partialRectangle;overflow=hidden;connectable=0;fillColor=none;strokeColor=inherit;top=0;left=0;bottom=0;right=0;" vertex="1" parent="hjU8-SRuWJ7MqtnoK7Vt-673">
          <mxGeometry width="30" height="30" as="geometry">
            <mxRectangle width="30" height="30" as="alternateBounds" />
          </mxGeometry>
        </mxCell>
        <mxCell id="hjU8-SRuWJ7MqtnoK7Vt-675" value="name VARCHAR" style="shape=partialRectangle;overflow=hidden;connectable=0;fillColor=none;align=left;strokeColor=inherit;top=0;left=0;bottom=0;right=0;spacingLeft=6;" vertex="1" parent="hjU8-SRuWJ7MqtnoK7Vt-673">
          <mxGeometry x="30" width="104.81160191127242" height="30" as="geometry">
            <mxRectangle width="104.81160191127242" height="30" as="alternateBounds" />
          </mxGeometry>
        </mxCell>
        <mxCell id="hjU8-SRuWJ7MqtnoK7Vt-692" style="edgeStyle=orthogonalEdgeStyle;rounded=0;orthogonalLoop=1;jettySize=auto;html=1;exitX=1;exitY=0.5;exitDx=0;exitDy=0;entryX=1.005;entryY=0.834;entryDx=0;entryDy=0;entryPerimeter=0;" edge="1" parent="1" source="hjU8-SRuWJ7MqtnoK7Vt-351" target="hjU8-SRuWJ7MqtnoK7Vt-373">
          <mxGeometry relative="1" as="geometry">
            <mxPoint x="779.645846048991" y="146.47205225626635" as="targetPoint" />
            <Array as="points">
              <mxPoint x="783" y="351" />
              <mxPoint x="783" y="143" />
            </Array>
          </mxGeometry>
        </mxCell>
        <mxCell id="hjU8-SRuWJ7MqtnoK7Vt-693" style="edgeStyle=orthogonalEdgeStyle;rounded=0;orthogonalLoop=1;jettySize=auto;html=1;exitX=0;exitY=0.5;exitDx=0;exitDy=0;entryX=1;entryY=0.593;entryDx=0;entryDy=0;entryPerimeter=0;" edge="1" parent="1" source="hjU8-SRuWJ7MqtnoK7Vt-683" target="hjU8-SRuWJ7MqtnoK7Vt-373">
          <mxGeometry relative="1" as="geometry">
            <Array as="points">
              <mxPoint x="780" y="89" />
              <mxPoint x="780" y="136" />
            </Array>
          </mxGeometry>
        </mxCell>
        <mxCell id="hjU8-SRuWJ7MqtnoK7Vt-694" style="edgeStyle=orthogonalEdgeStyle;rounded=0;orthogonalLoop=1;jettySize=auto;html=1;exitX=0;exitY=0.5;exitDx=0;exitDy=0;entryX=1;entryY=0.5;entryDx=0;entryDy=0;" edge="1" parent="1" source="hjU8-SRuWJ7MqtnoK7Vt-686" target="hjU8-SRuWJ7MqtnoK7Vt-670">
          <mxGeometry relative="1" as="geometry" />
        </mxCell>
        <mxCell id="hjU8-SRuWJ7MqtnoK7Vt-695" style="edgeStyle=orthogonalEdgeStyle;rounded=0;orthogonalLoop=1;jettySize=auto;html=1;exitX=1;exitY=0.5;exitDx=0;exitDy=0;entryX=1.014;entryY=0.781;entryDx=0;entryDy=0;entryPerimeter=0;" edge="1" parent="1" source="hjU8-SRuWJ7MqtnoK7Vt-689" target="hjU8-SRuWJ7MqtnoK7Vt-677">
          <mxGeometry relative="1" as="geometry">
            <Array as="points">
              <mxPoint x="1143" y="193" />
              <mxPoint x="1143" y="67" />
            </Array>
          </mxGeometry>
        </mxCell>
      </root>
    </mxGraphModel>
  </diagram>
</mxfile>
